<svg xmlns="http://www.w3.org/2000/svg" xmlns:xlink="http://www.w3.org/1999/xlink" width="712" zoomAndPan="magnify" viewBox="0 0 534 119.249998" height="159" preserveAspectRatio="xMidYMid meet" version="1.0"><defs><g/><clipPath id="1999d00155"><path d="M 16.894531 25.464844 L 99.792969 25.464844 L 99.792969 92.679688 L 16.894531 92.679688 Z M 16.894531 25.464844 " clip-rule="nonzero"/></clipPath><clipPath id="4c661f9d15"><path d="M 16.894531 25.464844 L 99.625 25.464844 L 99.625 92.542969 L 16.894531 92.542969 Z M 16.894531 25.464844 " clip-rule="nonzero"/></clipPath><clipPath id="8d5e5aa6a6"><path d="M 16.957031 41.378906 L 34.84375 41.378906 L 34.84375 76.410156 L 16.957031 76.410156 Z M 16.957031 41.378906 " clip-rule="nonzero"/></clipPath><clipPath id="6257744805"><path d="M 15.785156 47.390625 L 27.710938 47.390625 L 27.710938 70.496094 L 15.785156 70.496094 Z M 15.785156 47.390625 " clip-rule="nonzero"/></clipPath><clipPath id="7a3af6ab0c"><path d="M 90.242188 47.597656 L 102.164062 47.597656 L 102.164062 70.703125 L 90.242188 70.703125 Z M 90.242188 47.597656 " clip-rule="nonzero"/></clipPath><clipPath id="bf0a28771b"><path d="M 196.253906 33.394531 L 205.542969 33.394531 L 205.542969 43.84375 L 196.253906 43.84375 Z M 196.253906 33.394531 " clip-rule="nonzero"/></clipPath></defs><g clip-path="url(#1999d00155)"><path fill="#0b103d" d="M 16.894531 25.464844 L 99.863281 25.464844 L 99.863281 92.679688 L 16.894531 92.679688 Z M 16.894531 25.464844 " fill-opacity="1" fill-rule="nonzero"/></g><g clip-path="url(#4c661f9d15)"><path stroke-linecap="butt" transform="matrix(0.745312, 0, 0, 0.745312, 16.896285, 25.463308)" fill="none" stroke-linejoin="miter" d="M -0.00235289 0.0020604 L 111.213587 0.0020604 L 111.213587 90.169781 L -0.00235289 90.169781 Z M -0.00235289 0.0020604 " stroke="#0b103d" stroke-width="60" stroke-opacity="1" stroke-miterlimit="4"/></g><g fill="#ffffff" fill-opacity="1"><g transform="translate(19.240114, 85.601449)"><g><path d="M 27.375 0 L 4.25 0 L 4.25 -54.109375 L 26.390625 -54.109375 C 33.523438 -54.109375 38.582031 -52.550781 41.5625 -49.4375 C 43.6875 -47.257812 44.75 -44.300781 44.75 -40.5625 C 44.75 -34.46875 42.335938 -30.425781 37.515625 -28.4375 C 40.734375 -27.726562 43.203125 -26.3125 44.921875 -24.1875 C 46.648438 -22.0625 47.515625 -19.34375 47.515625 -16.03125 C 47.515625 -13.382812 46.992188 -11.007812 45.953125 -8.90625 C 44.910156 -6.800781 43.632812 -5.15625 42.125 -3.96875 C 40.375 -2.644531 38.492188 -1.710938 36.484375 -1.171875 C 34.472656 -0.628906 32.628906 -0.296875 30.953125 -0.171875 C 29.273438 -0.0546875 28.082031 0 27.375 0 Z M 16.953125 -42.765625 L 16.953125 -32.265625 L 25.3125 -32.265625 C 29.8125 -32.265625 32.0625 -34.039062 32.0625 -37.59375 C 32.0625 -39.34375 31.492188 -40.640625 30.359375 -41.484375 C 29.742188 -41.960938 28.925781 -42.296875 27.90625 -42.484375 C 26.894531 -42.671875 25.460938 -42.765625 23.609375 -42.765625 Z M 16.953125 -22.34375 L 16.953125 -11.34375 L 25.75 -11.34375 C 27.351562 -11.34375 28.789062 -11.445312 30.0625 -11.65625 C 31.34375 -11.875 32.382812 -12.316406 33.1875 -12.984375 C 34.28125 -13.828125 34.828125 -15.195312 34.828125 -17.09375 C 34.828125 -19.3125 34.113281 -20.738281 32.6875 -21.375 C 31.269531 -22.019531 29.265625 -22.34375 26.671875 -22.34375 Z M 16.953125 -22.34375 "/></g></g></g><g clip-path="url(#8d5e5aa6a6)"><path fill="#0b103d" d="M 16.988281 41.378906 L 16.988281 76.664062 C 17.566406 76.664062 18.140625 76.636719 18.71875 76.578125 C 19.292969 76.523438 19.863281 76.4375 20.429688 76.324219 C 20.996094 76.210938 21.554688 76.070312 22.109375 75.902344 C 22.660156 75.734375 23.203125 75.539062 23.738281 75.320312 C 24.273438 75.097656 24.792969 74.851562 25.300781 74.578125 C 25.8125 74.308594 26.308594 74.011719 26.789062 73.6875 C 27.265625 73.367188 27.730469 73.023438 28.175781 72.65625 C 28.625 72.289062 29.050781 71.902344 29.460938 71.496094 C 29.867188 71.085938 30.253906 70.660156 30.621094 70.210938 C 30.988281 69.765625 31.332031 69.300781 31.652344 68.820312 C 31.972656 68.339844 32.269531 67.847656 32.542969 67.335938 C 32.816406 66.828125 33.0625 66.304688 33.28125 65.773438 C 33.503906 65.238281 33.699219 64.695312 33.867188 64.140625 C 34.035156 63.589844 34.171875 63.027344 34.285156 62.460938 C 34.398438 61.894531 34.484375 61.324219 34.539062 60.75 C 34.597656 60.175781 34.625 59.597656 34.625 59.019531 C 34.625 58.445312 34.597656 57.867188 34.539062 57.292969 C 34.484375 56.71875 34.398438 56.148438 34.285156 55.582031 C 34.171875 55.011719 34.035156 54.453125 33.867188 53.902344 C 33.699219 53.347656 33.503906 52.804688 33.28125 52.269531 C 33.0625 51.738281 32.816406 51.214844 32.542969 50.707031 C 32.269531 50.195312 31.972656 49.703125 31.652344 49.222656 C 31.332031 48.742188 30.988281 48.277344 30.621094 47.832031 C 30.253906 47.382812 29.867188 46.957031 29.460938 46.546875 C 29.050781 46.140625 28.625 45.753906 28.175781 45.386719 C 27.730469 45.019531 27.265625 44.675781 26.789062 44.355469 C 26.308594 44.03125 25.8125 43.734375 25.300781 43.464844 C 24.792969 43.191406 24.273438 42.945312 23.738281 42.722656 C 23.203125 42.503906 22.660156 42.308594 22.109375 42.140625 C 21.554688 41.972656 20.996094 41.832031 20.429688 41.71875 C 19.863281 41.605469 19.292969 41.519531 18.71875 41.464844 C 18.140625 41.40625 17.566406 41.378906 16.988281 41.378906 Z M 16.988281 41.378906 " fill-opacity="1" fill-rule="nonzero"/></g><g clip-path="url(#6257744805)"><path fill="#ffffff" d="M 15.808594 47.390625 L 15.808594 70.660156 C 16.570312 70.660156 17.328125 70.585938 18.078125 70.433594 C 18.828125 70.285156 19.554688 70.066406 20.257812 69.773438 C 20.964844 69.480469 21.636719 69.121094 22.269531 68.699219 C 22.90625 68.273438 23.492188 67.789062 24.03125 67.25 C 24.570312 66.710938 25.054688 66.121094 25.476562 65.488281 C 25.902344 64.851562 26.261719 64.183594 26.554688 63.476562 C 26.84375 62.769531 27.066406 62.042969 27.214844 61.292969 C 27.363281 60.546875 27.4375 59.789062 27.4375 59.027344 C 27.4375 58.261719 27.363281 57.503906 27.214844 56.757812 C 27.066406 56.007812 26.84375 55.28125 26.554688 54.574219 C 26.261719 53.867188 25.902344 53.199219 25.476562 52.5625 C 25.054688 51.929688 24.570312 51.339844 24.03125 50.800781 C 23.492188 50.261719 22.90625 49.777344 22.269531 49.355469 C 21.636719 48.929688 20.964844 48.570312 20.257812 48.277344 C 19.554688 47.984375 18.828125 47.765625 18.078125 47.617188 C 17.328125 47.464844 16.570312 47.390625 15.808594 47.390625 Z M 15.808594 47.390625 " fill-opacity="1" fill-rule="nonzero"/></g><g clip-path="url(#7a3af6ab0c)"><path fill="#ffffff" d="M 102.144531 70.703125 L 102.144531 47.4375 C 101.378906 47.4375 100.625 47.511719 99.875 47.660156 C 99.125 47.808594 98.398438 48.03125 97.695312 48.324219 C 96.988281 48.617188 96.316406 48.972656 95.683594 49.398438 C 95.046875 49.824219 94.460938 50.304688 93.921875 50.84375 C 93.378906 51.386719 92.898438 51.972656 92.472656 52.609375 C 92.050781 53.242188 91.691406 53.914062 91.398438 54.617188 C 91.109375 55.324219 90.886719 56.050781 90.738281 56.800781 C 90.589844 57.550781 90.515625 58.304688 90.515625 59.070312 C 90.515625 59.832031 90.589844 60.589844 90.738281 61.339844 C 90.886719 62.089844 91.109375 62.816406 91.398438 63.519531 C 91.691406 64.226562 92.050781 64.898438 92.472656 65.53125 C 92.898438 66.167969 93.378906 66.753906 93.921875 67.296875 C 94.460938 67.835938 95.046875 68.316406 95.683594 68.742188 C 96.316406 69.167969 96.988281 69.523438 97.695312 69.816406 C 98.398438 70.109375 99.125 70.332031 99.875 70.480469 C 100.625 70.628906 101.378906 70.703125 102.144531 70.703125 Z M 102.144531 70.703125 " fill-opacity="1" fill-rule="nonzero"/></g><g fill="#0b103d" fill-opacity="1"><g transform="translate(113.930477, 82.156757)"><g><path d="M 42.890625 -12.15625 C 42.890625 -9.5 42.203125 -7.269531 40.828125 -5.46875 C 39.453125 -3.675781 37.601562 -2.316406 35.28125 -1.390625 C 32.957031 -0.460938 30.425781 0 27.6875 0 L 4.90625 0 L 4.90625 -47.140625 L 30.140625 -47.140625 C 32.347656 -47.140625 34.257812 -46.550781 35.875 -45.375 C 37.5 -44.207031 38.738281 -42.703125 39.59375 -40.859375 C 40.457031 -39.023438 40.890625 -37.113281 40.890625 -35.125 C 40.890625 -32.863281 40.3125 -30.710938 39.15625 -28.671875 C 38.007812 -26.640625 36.332031 -25.140625 34.125 -24.171875 C 36.820312 -23.367188 38.957031 -21.925781 40.53125 -19.84375 C 42.101562 -17.769531 42.890625 -15.207031 42.890625 -12.15625 Z M 33.65625 -13.875 C 33.65625 -15.070312 33.410156 -16.144531 32.921875 -17.09375 C 32.441406 -18.039062 31.789062 -18.789062 30.96875 -19.34375 C 30.15625 -19.90625 29.21875 -20.1875 28.15625 -20.1875 L 14.078125 -20.1875 L 14.078125 -7.765625 L 27.6875 -7.765625 C 28.789062 -7.765625 29.796875 -8.039062 30.703125 -8.59375 C 31.609375 -9.144531 32.328125 -9.882812 32.859375 -10.8125 C 33.390625 -11.75 33.65625 -12.769531 33.65625 -13.875 Z M 14.078125 -39.296875 L 14.078125 -27.421875 L 26.296875 -27.421875 C 27.304688 -27.421875 28.234375 -27.660156 29.078125 -28.140625 C 29.921875 -28.628906 30.597656 -29.316406 31.109375 -30.203125 C 31.617188 -31.085938 31.875 -32.148438 31.875 -33.390625 C 31.875 -34.585938 31.640625 -35.628906 31.171875 -36.515625 C 30.703125 -37.398438 30.082031 -38.082031 29.3125 -38.5625 C 28.539062 -39.050781 27.664062 -39.296875 26.6875 -39.296875 Z M 14.078125 -39.296875 "/></g></g></g><g fill="#0b103d" fill-opacity="1"><g transform="translate(155.294345, 82.156757)"><g><path d="M 3.71875 -13.015625 L 3.71875 -34.78125 L 12.609375 -34.78125 L 12.609375 -14.9375 C 12.609375 -12.28125 13.09375 -10.273438 14.0625 -8.921875 C 15.039062 -7.578125 16.484375 -6.90625 18.390625 -6.90625 C 19.535156 -6.90625 20.671875 -7.132812 21.796875 -7.59375 C 22.929688 -8.0625 23.972656 -8.757812 24.921875 -9.6875 C 25.878906 -10.625 26.691406 -11.800781 27.359375 -13.21875 L 27.359375 -34.78125 L 36.25 -34.78125 L 36.25 -9.953125 C 36.25 -9.023438 36.414062 -8.363281 36.75 -7.96875 C 37.082031 -7.570312 37.625 -7.328125 38.375 -7.234375 L 38.375 0 C 37.488281 0.132812 36.742188 0.234375 36.140625 0.296875 C 35.546875 0.359375 35.003906 0.390625 34.515625 0.390625 C 32.929688 0.390625 31.640625 0.0234375 30.640625 -0.703125 C 29.640625 -1.429688 29.050781 -2.4375 28.875 -3.71875 L 28.6875 -6.5 C 27.132812 -4.15625 25.140625 -2.375 22.703125 -1.15625 C 20.265625 0.0507812 17.585938 0.65625 14.671875 0.65625 C 11.085938 0.65625 8.363281 -0.503906 6.5 -2.828125 C 4.644531 -5.148438 3.71875 -8.546875 3.71875 -13.015625 Z M 3.71875 -13.015625 "/></g></g></g><g fill="#0b103d" fill-opacity="1"><g transform="translate(192.5417, 82.156757)"><g><path d="M 4.046875 0 L 4.046875 -34.78125 L 12.953125 -34.78125 L 12.953125 0 Z M 4.046875 -39.640625 L 4.046875 -48.46875 L 12.953125 -48.46875 L 12.953125 -39.640625 Z M 4.046875 -39.640625 "/></g></g></g><g fill="#0b103d" fill-opacity="1"><g transform="translate(205.687571, 82.156757)"><g><path d="M 3.984375 -48.46875 L 12.875 -48.46875 L 12.875 -11.15625 C 12.875 -9.5625 13.140625 -8.488281 13.671875 -7.9375 C 14.203125 -7.382812 14.9375 -7.109375 15.875 -7.109375 C 16.570312 -7.109375 17.296875 -7.195312 18.046875 -7.375 C 18.804688 -7.550781 19.472656 -7.769531 20.046875 -8.03125 L 21.25 -1.265625 C 20.050781 -0.679688 18.65625 -0.238281 17.0625 0.0625 C 15.46875 0.375 14.03125 0.53125 12.75 0.53125 C 9.957031 0.53125 7.796875 -0.207031 6.265625 -1.6875 C 4.742188 -3.175781 3.984375 -5.289062 3.984375 -8.03125 Z M 3.984375 -48.46875 "/></g></g></g><g fill="#0b103d" fill-opacity="1"><g transform="translate(222.949946, 82.156757)"><g><path d="M 1.921875 -17.390625 C 1.921875 -20.753906 2.582031 -23.796875 3.90625 -26.515625 C 5.238281 -29.242188 7.078125 -31.40625 9.421875 -33 C 11.773438 -34.59375 14.453125 -35.390625 17.453125 -35.390625 C 20.023438 -35.390625 22.335938 -34.757812 24.390625 -33.5 C 26.453125 -32.238281 28.0625 -30.632812 29.21875 -28.6875 L 29.21875 -48.46875 L 38.109375 -48.46875 L 38.109375 -9.953125 C 38.109375 -9.023438 38.257812 -8.363281 38.5625 -7.96875 C 38.875 -7.570312 39.410156 -7.328125 40.171875 -7.234375 L 40.171875 0 C 38.617188 0.3125 37.351562 0.46875 36.375 0.46875 C 34.78125 0.46875 33.460938 0.0703125 32.421875 -0.71875 C 31.390625 -1.519531 30.804688 -2.5625 30.671875 -3.84375 L 30.546875 -6.046875 C 29.253906 -3.867188 27.515625 -2.207031 25.328125 -1.0625 C 23.140625 0.0820312 20.847656 0.65625 18.453125 0.65625 C 16.066406 0.65625 13.863281 0.191406 11.84375 -0.734375 C 9.832031 -1.660156 8.082031 -2.941406 6.59375 -4.578125 C 5.113281 -6.210938 3.960938 -8.125 3.140625 -10.3125 C 2.328125 -12.507812 1.921875 -14.867188 1.921875 -17.390625 Z M 29.21875 -12.75 L 29.21875 -21.046875 C 28.769531 -22.328125 28.054688 -23.476562 27.078125 -24.5 C 26.109375 -25.519531 25.023438 -26.328125 23.828125 -26.921875 C 22.640625 -27.515625 21.445312 -27.8125 20.25 -27.8125 C 18.875 -27.8125 17.632812 -27.523438 16.53125 -26.953125 C 15.425781 -26.378906 14.460938 -25.601562 13.640625 -24.625 C 12.828125 -23.65625 12.207031 -22.523438 11.78125 -21.234375 C 11.363281 -19.953125 11.15625 -18.601562 11.15625 -17.1875 C 11.15625 -15.78125 11.382812 -14.441406 11.84375 -13.171875 C 12.3125 -11.910156 12.988281 -10.816406 13.875 -9.890625 C 14.757812 -8.960938 15.785156 -8.234375 16.953125 -7.703125 C 18.128906 -7.171875 19.40625 -6.90625 20.78125 -6.90625 C 21.625 -6.90625 22.472656 -7.046875 23.328125 -7.328125 C 24.191406 -7.617188 25.007812 -8.019531 25.78125 -8.53125 C 26.5625 -9.039062 27.25 -9.660156 27.84375 -10.390625 C 28.445312 -11.117188 28.90625 -11.90625 29.21875 -12.75 Z M 29.21875 -12.75 "/></g></g></g><g fill="#0b103d" fill-opacity="1"><g transform="translate(261.989984, 82.156757)"><g><path d="M 43.359375 0 L 43.359375 -30.9375 L 31.265625 -7.90625 L 26.15625 -7.90625 L 14.078125 -30.9375 L 14.078125 0 L 4.90625 0 L 4.90625 -47.140625 L 14.734375 -47.140625 L 28.6875 -20.3125 L 42.75 -47.140625 L 52.515625 -47.140625 L 52.515625 0 Z M 43.359375 0 "/></g></g></g><g fill="#0b103d" fill-opacity="1"><g transform="translate(315.636974, 82.156757)"><g><path d="M 4.78125 6.765625 C 5.570312 6.941406 6.3125 7.097656 7 7.234375 C 7.6875 7.367188 8.273438 7.4375 8.765625 7.4375 C 9.609375 7.4375 10.304688 7.222656 10.859375 6.796875 C 11.410156 6.378906 11.953125 5.628906 12.484375 4.546875 C 13.015625 3.460938 13.566406 1.945312 14.140625 0 L 0.390625 -34.78125 L 9.625 -34.78125 L 18.984375 -9.09375 L 27.21875 -34.78125 L 35.71875 -34.78125 L 21.109375 6.90625 C 20.578125 8.457031 19.769531 9.863281 18.6875 11.125 C 17.601562 12.382812 16.253906 13.378906 14.640625 14.109375 C 13.023438 14.835938 11.222656 15.203125 9.234375 15.203125 C 8.523438 15.203125 7.816406 15.144531 7.109375 15.03125 C 6.398438 14.925781 5.625 14.738281 4.78125 14.46875 Z M 4.78125 6.765625 "/></g></g></g><g fill="#5271ff" fill-opacity="1"><g transform="translate(348.379365, 82.156757)"><g><path d="M 37.640625 -8.03125 L 37.640625 0 L 4.90625 0 L 4.90625 -47.140625 L 37.046875 -47.140625 L 37.046875 -39.109375 L 14.078125 -39.109375 L 14.078125 -27.75 L 33.921875 -27.75 L 33.921875 -20.3125 L 14.078125 -20.3125 L 14.078125 -8.03125 Z M 37.640625 -8.03125 "/></g></g></g><g fill="#5271ff" fill-opacity="1"><g transform="translate(384.498003, 82.156757)"><g><path d="M 13.40625 0 L 0.59375 -34.78125 L 9.828125 -34.78125 L 18.59375 -8.09375 L 27.421875 -34.78125 L 35.84375 -34.78125 L 23.109375 0 Z M 13.40625 0 "/></g></g></g><g fill="#5271ff" fill-opacity="1"><g transform="translate(417.230483, 82.156757)"><g><path d="M 20.1875 0.65625 C 17.394531 0.65625 14.867188 0.179688 12.609375 -0.765625 C 10.359375 -1.710938 8.4375 -3.015625 6.84375 -4.671875 C 5.25 -6.335938 4.019531 -8.242188 3.15625 -10.390625 C 2.289062 -12.535156 1.859375 -14.800781 1.859375 -17.1875 C 1.859375 -20.507812 2.597656 -23.539062 4.078125 -26.28125 C 5.566406 -29.03125 7.691406 -31.234375 10.453125 -32.890625 C 13.222656 -34.554688 16.488281 -35.390625 20.25 -35.390625 C 24.050781 -35.390625 27.300781 -34.554688 30 -32.890625 C 32.707031 -31.234375 34.78125 -29.039062 36.21875 -26.3125 C 37.65625 -23.59375 38.375 -20.664062 38.375 -17.53125 C 38.375 -17 38.347656 -16.457031 38.296875 -15.90625 C 38.253906 -15.351562 38.210938 -14.898438 38.171875 -14.546875 L 11.28125 -14.546875 C 11.457031 -12.773438 11.976562 -11.222656 12.84375 -9.890625 C 13.707031 -8.566406 14.8125 -7.5625 16.15625 -6.875 C 17.507812 -6.1875 18.960938 -5.84375 20.515625 -5.84375 C 22.285156 -5.84375 23.957031 -6.273438 25.53125 -7.140625 C 27.101562 -8.003906 28.175781 -9.144531 28.75 -10.5625 L 36.375 -8.4375 C 35.539062 -6.664062 34.335938 -5.09375 32.765625 -3.71875 C 31.191406 -2.34375 29.34375 -1.269531 27.21875 -0.5 C 25.09375 0.269531 22.75 0.65625 20.1875 0.65625 Z M 11.09375 -20.1875 L 29.28125 -20.1875 C 29.101562 -21.957031 28.601562 -23.492188 27.78125 -24.796875 C 26.96875 -26.097656 25.894531 -27.113281 24.5625 -27.84375 C 23.238281 -28.582031 21.753906 -28.953125 20.109375 -28.953125 C 18.515625 -28.953125 17.066406 -28.582031 15.765625 -27.84375 C 14.460938 -27.113281 13.398438 -26.097656 12.578125 -24.796875 C 11.765625 -23.492188 11.269531 -21.957031 11.09375 -20.1875 Z M 11.09375 -20.1875 "/></g></g></g><g fill="#5271ff" fill-opacity="1"><g transform="translate(453.216332, 82.156757)"><g><path d="M 36.375 0 L 27.484375 0 L 27.484375 -19.515625 C 27.484375 -22.304688 26.992188 -24.34375 26.015625 -25.625 C 25.046875 -26.90625 23.695312 -27.546875 21.96875 -27.546875 C 20.78125 -27.546875 19.578125 -27.234375 18.359375 -26.609375 C 17.140625 -25.992188 16.039062 -25.144531 15.0625 -24.0625 C 14.09375 -22.976562 13.390625 -21.726562 12.953125 -20.3125 L 12.953125 0 L 4.046875 0 L 4.046875 -34.78125 L 12.078125 -34.78125 L 12.078125 -28.34375 C 12.960938 -29.851562 14.09375 -31.125 15.46875 -32.15625 C 16.84375 -33.195312 18.425781 -33.992188 20.21875 -34.546875 C 22.007812 -35.109375 23.898438 -35.390625 25.890625 -35.390625 C 28.054688 -35.390625 29.835938 -35 31.234375 -34.21875 C 32.628906 -33.445312 33.691406 -32.40625 34.421875 -31.09375 C 35.148438 -29.789062 35.65625 -28.320312 35.9375 -26.6875 C 36.226562 -25.050781 36.375 -23.390625 36.375 -21.703125 Z M 36.375 0 "/></g></g></g><g fill="#5271ff" fill-opacity="1"><g transform="translate(489.534153, 82.156757)"><g><path d="M 24.890625 -1.796875 C 24.140625 -1.484375 23.234375 -1.125 22.171875 -0.71875 C 21.109375 -0.320312 19.96875 -0.00390625 18.75 0.234375 C 17.53125 0.472656 16.304688 0.59375 15.078125 0.59375 C 13.429688 0.59375 11.921875 0.304688 10.546875 -0.265625 C 9.179688 -0.835938 8.085938 -1.753906 7.265625 -3.015625 C 6.453125 -4.273438 6.046875 -5.925781 6.046875 -7.96875 L 6.046875 -27.953125 L 1.453125 -27.953125 L 1.453125 -34.78125 L 6.046875 -34.78125 L 6.046875 -46.078125 L 14.9375 -46.078125 L 14.9375 -34.78125 L 22.234375 -34.78125 L 22.234375 -27.953125 L 14.9375 -27.953125 L 14.9375 -10.953125 C 14.976562 -9.753906 15.304688 -8.890625 15.921875 -8.359375 C 16.546875 -7.828125 17.320312 -7.5625 18.25 -7.5625 C 19.1875 -7.5625 20.097656 -7.71875 20.984375 -8.03125 C 21.867188 -8.34375 22.578125 -8.609375 23.109375 -8.828125 Z M 24.890625 -1.796875 "/></g></g></g><g clip-path="url(#bf0a28771b)"><path fill="#5271ff" d="M 196.253906 33.394531 L 205.542969 33.394531 L 205.542969 43.84375 L 196.253906 43.84375 Z M 196.253906 33.394531 " fill-opacity="1" fill-rule="nonzero"/></g></svg>