<svg width="150" height="149" viewBox="0 0 150 149" fill="none" xmlns="http://www.w3.org/2000/svg">
<rect width="150" height="149" fill="white"/>
<mask id="mask0_14_173" style="mask-type:luminance" maskUnits="userSpaceOnUse" x="21" y="25" width="109" height="90">
<path d="M21.0508 25H129.371V114.62H21.0508V25Z" fill="white"/>
</mask>
<g mask="url(#mask0_14_173)">
<path d="M21.0508 25H129.463V114.62H21.0508V25Z" fill="#0B103D"/>
</g>
<mask id="mask1_14_173" style="mask-type:luminance" maskUnits="userSpaceOnUse" x="21" y="25" width="109" height="90">
<path d="M21.0508 25H129.152V114.438H21.0508V25Z" fill="white"/>
</mask>
<g mask="url(#mask1_14_173)">
<path d="M21.0508 25H129.361V114.604H21.0508V25Z" stroke="#0B103D" stroke-width="59.625"/>
</g>
<path d="M59.8846 105.182H29.668V33.0364H58.5984C67.9186 33.0364 74.5285 35.1145 78.423 39.2655C81.1996 42.1718 82.588 46.1145 82.588 51.0989C82.588 59.2239 79.4336 64.6145 73.1351 67.2655C77.3409 68.2135 80.5667 70.0989 82.8125 72.9322C85.0686 75.7655 86.2017 79.3905 86.2017 83.8072C86.2017 87.3385 85.5178 90.5051 84.16 93.3072C82.7972 96.1145 81.1282 98.3072 79.158 99.8905C76.8713 101.656 74.4111 102.901 71.7876 103.62C69.1589 104.344 66.7497 104.786 64.5601 104.953C62.3653 105.109 60.8085 105.182 59.8846 105.182ZM46.2667 48.1614V62.1614H57.1896C63.0696 62.1614 66.0096 59.7968 66.0096 55.0572C66.0096 52.7239 65.2644 50.9947 63.7842 49.8697C62.9778 49.2343 61.911 48.7864 60.5788 48.5364C59.2568 48.2864 57.3836 48.1614 54.9642 48.1614H46.2667ZM46.2667 75.3905V90.0572H57.7613C59.854 90.0572 61.7323 89.9218 63.3963 89.6405C65.0705 89.3489 66.4282 88.7603 67.4796 87.8697C68.9088 86.7447 69.6234 84.9218 69.6234 82.3905C69.6234 79.4322 68.6893 77.5312 66.8263 76.6822C64.9735 75.8228 62.3551 75.3905 58.9659 75.3905H46.2667Z" fill="white"/>
<mask id="mask2_14_173" style="mask-type:luminance" maskUnits="userSpaceOnUse" x="21" y="46" width="24" height="47">
<path d="M21.1328 46.2188H44.5048V92.9271H21.1328V46.2188Z" fill="white"/>
</mask>
<g mask="url(#mask2_14_173)">
<path d="M21.1719 46.2188V93.2656C21.9273 93.2656 22.6776 93.2292 23.433 93.151C24.1833 93.0781 24.9285 92.9635 25.6686 92.8125C26.4087 92.6615 27.1386 92.474 27.8634 92.25C28.5831 92.026 29.2926 91.7656 29.9919 91.474C30.6911 91.1771 31.37 90.849 32.0335 90.4844C32.7022 90.125 33.3504 89.7292 33.9782 89.2969C34.6009 88.8698 35.2083 88.4115 35.7902 87.9219C36.3772 87.4323 36.9335 86.9167 37.4695 86.375C38.0003 85.8281 38.5056 85.2604 38.9854 84.6615C39.4652 84.0677 39.9144 83.4479 40.3329 82.8073C40.7515 82.1667 41.1394 81.5104 41.4967 80.8281C41.854 80.151 42.1755 79.4531 42.4614 78.7448C42.7523 78.0312 43.0075 77.3073 43.227 76.5677C43.4465 75.8333 43.6251 75.0833 43.7731 74.3281C43.9211 73.5729 44.0334 72.8125 44.1049 72.0469C44.1815 71.2813 44.2172 70.5104 44.2172 69.7396C44.2172 68.974 44.1815 68.2031 44.1049 67.4375C44.0334 66.6719 43.9211 65.9115 43.7731 65.1563C43.6251 64.3958 43.4465 63.651 43.227 62.9167C43.0075 62.1771 42.7523 61.4531 42.4614 60.7396C42.1755 60.0313 41.854 59.3333 41.4967 58.6563C41.1394 57.974 40.7515 57.3177 40.3329 56.6771C39.9144 56.0365 39.4652 55.4167 38.9854 54.8229C38.5056 54.224 38.0003 53.6562 37.4695 53.1094C36.9335 52.5677 36.3772 52.0521 35.7902 51.5625C35.2083 51.0729 34.6009 50.6146 33.9782 50.1875C33.3504 49.7552 32.7022 49.3594 32.0335 49C31.37 48.6354 30.6911 48.3073 29.9919 48.0104C29.2926 47.7188 28.5831 47.4583 27.8634 47.2344C27.1386 47.0104 26.4087 46.8229 25.6686 46.6719C24.9285 46.5208 24.1833 46.4062 23.433 46.3333C22.6776 46.2552 21.9273 46.2188 21.1719 46.2188Z" fill="#0B103D"/>
</g>
<mask id="mask3_14_173" style="mask-type:luminance" maskUnits="userSpaceOnUse" x="19" y="54" width="17" height="32">
<path d="M19.6016 54.2344H35.1846V85.0417H19.6016V54.2344Z" fill="white"/>
</mask>
<g mask="url(#mask3_14_173)">
<path d="M19.6328 54.2344V85.2604C20.6281 85.2604 21.6183 85.1615 22.5983 84.9583C23.5783 84.7604 24.5277 84.4687 25.4465 84.0781C26.3703 83.6875 27.2482 83.2083 28.0751 82.6458C28.9071 82.0781 29.6727 81.4323 30.3771 80.7135C31.0815 79.9948 31.7144 79.2083 32.2656 78.3646C32.822 77.5156 33.2916 76.625 33.6744 75.6823C34.0521 74.7396 34.343 73.7708 34.537 72.7708C34.7309 71.776 34.8279 70.7656 34.8279 69.75C34.8279 68.7292 34.7309 67.7188 34.537 66.724C34.343 65.724 34.0521 64.7552 33.6744 63.8125C33.2916 62.8698 32.822 61.9792 32.2656 61.1302C31.7144 60.2865 31.0815 59.5 30.3771 58.7813C29.6727 58.0625 28.9071 57.4167 28.0751 56.8542C27.2482 56.2865 26.3703 55.8073 25.4465 55.4167C24.5277 55.026 23.5783 54.7344 22.5983 54.5365C21.6183 54.3333 20.6281 54.2344 19.6328 54.2344Z" fill="white"/>
</g>
<mask id="mask4_14_173" style="mask-type:luminance" maskUnits="userSpaceOnUse" x="116" y="54" width="17" height="32">
<path d="M116.891 54.5105H132.469V85.3178H116.891V54.5105Z" fill="white"/>
</mask>
<g mask="url(#mask4_14_173)">
<path d="M132.441 85.3177V54.2969C131.441 54.2969 130.456 54.3958 129.476 54.5938C128.496 54.7917 127.546 55.0885 126.628 55.4792C125.704 55.8698 124.826 56.3437 123.999 56.9115C123.167 57.4792 122.401 58.1198 121.697 58.8385C120.987 59.5625 120.36 60.3437 119.803 61.1927C119.252 62.0365 118.782 62.9323 118.4 63.8698C118.022 64.8125 117.731 65.7813 117.537 66.7813C117.343 67.7813 117.246 68.7865 117.246 69.8073C117.246 70.8229 117.343 71.8333 117.537 72.8333C117.731 73.8333 118.022 74.8021 118.4 75.7396C118.782 76.6823 119.252 77.5781 119.803 78.4219C120.36 79.2708 120.987 80.0521 121.697 80.776C122.401 81.4948 123.167 82.1354 123.999 82.7031C124.826 83.2708 125.704 83.7448 126.628 84.1354C127.546 84.526 128.496 84.8229 129.476 85.0208C130.456 85.2188 131.441 85.3177 132.441 85.3177Z" fill="white"/>
</g>
</svg>
