<svg xmlns="http://www.w3.org/2000/svg" xmlns:xlink="http://www.w3.org/1999/xlink" width="926" zoomAndPan="magnify" viewBox="0 0 694.5 185.249993" height="247" preserveAspectRatio="xMidYMid meet" version="1.0"><defs><g/><clipPath id="12c0f04502"><path d="M 26.988281 42.078125 L 127.132812 42.078125 L 127.132812 142.222656 L 26.988281 142.222656 Z M 26.988281 42.078125 " clip-rule="nonzero"/></clipPath><clipPath id="fd024d3fc6"><path d="M 26.988281 42.078125 L 127.082031 42.078125 L 127.082031 142.171875 L 26.988281 142.171875 Z M 26.988281 42.078125 " clip-rule="nonzero"/></clipPath><clipPath id="d2c5bc5bcc"><path d="M 27.082031 65.855469 L 53.222656 65.855469 L 53.222656 118.144531 L 27.082031 118.144531 Z M 27.082031 65.855469 " clip-rule="nonzero"/></clipPath><clipPath id="6ab27cf541"><path d="M 25.339844 74.75 L 42.519531 74.75 L 42.519531 109.109375 L 25.339844 109.109375 Z M 25.339844 74.75 " clip-rule="nonzero"/></clipPath><clipPath id="a4d0ee189e"><path d="M 112.195312 75.117188 L 129.375 75.117188 L 129.375 109.480469 L 112.195312 109.480469 Z M 112.195312 75.117188 " clip-rule="nonzero"/></clipPath><clipPath id="aef0615bf6"><path d="M 249.839844 58.320312 L 262.074219 58.320312 L 262.074219 70.902344 L 249.839844 70.902344 Z M 249.839844 58.320312 " clip-rule="nonzero"/></clipPath></defs><g clip-path="url(#12c0f04502)"><path fill="#0b103d" d="M 26.988281 42.078125 L 127.132812 42.078125 L 127.132812 142.222656 L 26.988281 142.222656 Z M 26.988281 42.078125 " fill-opacity="1" fill-rule="nonzero"/></g><g clip-path="url(#fd024d3fc6)"><path stroke-linecap="butt" transform="matrix(0.746976, 0, 0, 0.746976, 26.987361, 42.078074)" fill="none" stroke-linejoin="miter" d="M 0.00123162 0.0000687176 L 134.062646 0.0000687176 L 134.062646 134.061483 L 0.00123162 134.061483 Z M 0.00123162 0.0000687176 " stroke="#0b103d" stroke-width="60" stroke-opacity="1" stroke-miterlimit="4"/></g><g fill="#ffffff" fill-opacity="1"><g transform="translate(28.563013, 133.540555)"><g><path d="M 42.703125 0 L 6.640625 0 L 6.640625 -84.421875 L 41.15625 -84.421875 C 52.289062 -84.421875 60.179688 -81.984375 64.828125 -77.109375 C 68.148438 -73.722656 69.8125 -69.113281 69.8125 -63.28125 C 69.8125 -53.769531 66.050781 -47.460938 58.53125 -44.359375 C 63.539062 -43.253906 67.390625 -41.039062 70.078125 -37.71875 C 72.773438 -34.40625 74.125 -30.164062 74.125 -25 C 74.125 -20.875 73.3125 -17.171875 71.6875 -13.890625 C 70.070312 -10.609375 68.082031 -8.046875 65.71875 -6.203125 C 62.988281 -4.128906 60.054688 -2.664062 56.921875 -1.8125 C 53.785156 -0.96875 50.90625 -0.453125 48.28125 -0.265625 C 45.664062 -0.0859375 43.804688 0 42.703125 0 Z M 26.4375 -66.71875 L 26.4375 -50.34375 L 39.5 -50.34375 C 46.507812 -50.34375 50.015625 -53.109375 50.015625 -58.640625 C 50.015625 -61.367188 49.128906 -63.394531 47.359375 -64.71875 C 46.398438 -65.457031 45.125 -65.972656 43.53125 -66.265625 C 41.945312 -66.566406 39.71875 -66.71875 36.84375 -66.71875 Z M 26.4375 -34.859375 L 26.4375 -17.703125 L 40.15625 -17.703125 C 42.664062 -17.703125 44.914062 -17.867188 46.90625 -18.203125 C 48.90625 -18.535156 50.53125 -19.21875 51.78125 -20.25 C 53.476562 -21.570312 54.328125 -23.710938 54.328125 -26.671875 C 54.328125 -30.128906 53.21875 -32.359375 51 -33.359375 C 48.789062 -34.359375 45.65625 -34.859375 41.59375 -34.859375 Z M 26.4375 -34.859375 "/></g></g></g><g clip-path="url(#d2c5bc5bcc)"><path fill="#0b103d" d="M 27.125 65.855469 L 27.125 118.4375 C 27.984375 118.4375 28.84375 118.394531 29.703125 118.308594 C 30.558594 118.222656 31.410156 118.097656 32.253906 117.929688 C 33.097656 117.761719 33.929688 117.550781 34.753906 117.300781 C 35.578125 117.050781 36.386719 116.761719 37.183594 116.433594 C 37.976562 116.101562 38.753906 115.734375 39.515625 115.328125 C 40.273438 114.921875 41.011719 114.480469 41.726562 114.003906 C 42.441406 113.523438 43.132812 113.011719 43.796875 112.464844 C 44.464844 111.917969 45.101562 111.339844 45.710938 110.734375 C 46.316406 110.125 46.894531 109.488281 47.441406 108.820312 C 47.988281 108.15625 48.5 107.464844 48.976562 106.75 C 49.457031 106.035156 49.898438 105.296875 50.304688 104.535156 C 50.710938 103.777344 51.078125 103 51.40625 102.203125 C 51.734375 101.410156 52.023438 100.601562 52.273438 99.777344 C 52.523438 98.953125 52.734375 98.117188 52.902344 97.273438 C 53.070312 96.429688 53.195312 95.578125 53.28125 94.722656 C 53.363281 93.867188 53.40625 93.007812 53.40625 92.144531 C 53.40625 91.285156 53.363281 90.425781 53.28125 89.570312 C 53.195312 88.714844 53.070312 87.863281 52.902344 87.019531 C 52.734375 86.175781 52.523438 85.339844 52.273438 84.515625 C 52.023438 83.691406 51.734375 82.882812 51.40625 82.085938 C 51.078125 81.292969 50.710938 80.515625 50.304688 79.753906 C 49.898438 78.996094 49.457031 78.257812 48.976562 77.542969 C 48.5 76.828125 47.988281 76.136719 47.441406 75.472656 C 46.894531 74.804688 46.316406 74.167969 45.710938 73.558594 C 45.101562 72.949219 44.464844 72.375 43.796875 71.828125 C 43.132812 71.28125 42.441406 70.769531 41.726562 70.289062 C 41.011719 69.8125 40.273438 69.371094 39.515625 68.964844 C 38.753906 68.558594 37.976562 68.191406 37.183594 67.859375 C 36.386719 67.53125 35.578125 67.242188 34.753906 66.992188 C 33.929688 66.738281 33.097656 66.53125 32.253906 66.363281 C 31.410156 66.195312 30.558594 66.066406 29.703125 65.984375 C 28.84375 65.898438 27.984375 65.855469 27.125 65.855469 Z M 27.125 65.855469 " fill-opacity="1" fill-rule="nonzero"/></g><g clip-path="url(#6ab27cf541)"><path fill="#ffffff" d="M 25.371094 74.75 L 25.371094 109.414062 C 25.9375 109.414062 26.503906 109.382812 27.070312 109.328125 C 27.632812 109.273438 28.195312 109.191406 28.75 109.078125 C 29.308594 108.96875 29.855469 108.828125 30.398438 108.664062 C 30.941406 108.5 31.476562 108.308594 32 108.089844 C 32.523438 107.875 33.039062 107.632812 33.539062 107.363281 C 34.039062 107.097656 34.523438 106.804688 34.996094 106.488281 C 35.46875 106.175781 35.921875 105.835938 36.363281 105.476562 C 36.800781 105.117188 37.21875 104.734375 37.621094 104.335938 C 38.023438 103.933594 38.402344 103.511719 38.765625 103.074219 C 39.125 102.636719 39.460938 102.179688 39.777344 101.707031 C 40.089844 101.234375 40.382812 100.75 40.652344 100.25 C 40.917969 99.75 41.160156 99.234375 41.378906 98.710938 C 41.59375 98.1875 41.785156 97.652344 41.949219 97.109375 C 42.113281 96.566406 42.253906 96.019531 42.363281 95.460938 C 42.472656 94.90625 42.558594 94.34375 42.613281 93.777344 C 42.667969 93.214844 42.695312 92.648438 42.695312 92.082031 C 42.695312 91.511719 42.667969 90.945312 42.613281 90.382812 C 42.558594 89.816406 42.472656 89.257812 42.363281 88.699219 C 42.253906 88.144531 42.113281 87.59375 41.949219 87.050781 C 41.785156 86.507812 41.59375 85.972656 41.378906 85.449219 C 41.160156 84.925781 40.917969 84.414062 40.652344 83.910156 C 40.382812 83.410156 40.089844 82.925781 39.777344 82.453125 C 39.460938 81.980469 39.125 81.527344 38.765625 81.085938 C 38.402344 80.648438 38.023438 80.226562 37.621094 79.828125 C 37.21875 79.425781 36.800781 79.042969 36.363281 78.683594 C 35.921875 78.324219 35.46875 77.988281 34.996094 77.671875 C 34.523438 77.355469 34.039062 77.066406 33.539062 76.796875 C 33.039062 76.527344 32.523438 76.285156 32 76.070312 C 31.476562 75.851562 30.941406 75.660156 30.398438 75.496094 C 29.855469 75.332031 29.308594 75.195312 28.75 75.082031 C 28.195312 74.972656 27.632812 74.886719 27.070312 74.832031 C 26.503906 74.777344 25.9375 74.75 25.371094 74.75 Z M 25.371094 74.75 " fill-opacity="1" fill-rule="nonzero"/></g><g clip-path="url(#a4d0ee189e)"><path fill="#ffffff" d="M 129.34375 109.480469 L 129.34375 74.816406 C 128.777344 74.816406 128.210938 74.84375 127.644531 74.898438 C 127.082031 74.953125 126.519531 75.039062 125.964844 75.148438 C 125.40625 75.261719 124.855469 75.398438 124.3125 75.5625 C 123.769531 75.726562 123.238281 75.917969 122.714844 76.136719 C 122.1875 76.351562 121.675781 76.597656 121.175781 76.863281 C 120.675781 77.132812 120.1875 77.421875 119.71875 77.738281 C 119.246094 78.054688 118.789062 78.390625 118.351562 78.75 C 117.914062 79.113281 117.492188 79.492188 117.09375 79.894531 C 116.691406 80.292969 116.308594 80.714844 115.949219 81.152344 C 115.589844 81.59375 115.253906 82.046875 114.9375 82.519531 C 114.621094 82.992188 114.332031 83.476562 114.0625 83.976562 C 113.796875 84.480469 113.554688 84.992188 113.335938 85.515625 C 113.121094 86.039062 112.929688 86.574219 112.761719 87.117188 C 112.597656 87.660156 112.460938 88.210938 112.351562 88.765625 C 112.238281 89.324219 112.15625 89.882812 112.101562 90.449219 C 112.046875 91.011719 112.019531 91.578125 112.019531 92.148438 C 112.019531 92.714844 112.046875 93.28125 112.101562 93.84375 C 112.15625 94.410156 112.238281 94.972656 112.351562 95.527344 C 112.460938 96.085938 112.597656 96.632812 112.765625 97.175781 C 112.929688 97.71875 113.121094 98.253906 113.335938 98.777344 C 113.554688 99.304688 113.796875 99.816406 114.0625 100.316406 C 114.332031 100.816406 114.621094 101.300781 114.9375 101.773438 C 115.253906 102.246094 115.589844 102.703125 115.949219 103.140625 C 116.308594 103.578125 116.691406 104 117.09375 104.402344 C 117.492188 104.800781 117.914062 105.183594 118.351562 105.542969 C 118.789062 105.902344 119.246094 106.242188 119.71875 106.554688 C 120.1875 106.871094 120.675781 107.164062 121.175781 107.429688 C 121.675781 107.699219 122.1875 107.941406 122.714844 108.15625 C 123.238281 108.375 123.769531 108.566406 124.3125 108.730469 C 124.855469 108.894531 125.40625 109.035156 125.964844 109.144531 C 126.519531 109.257812 127.082031 109.339844 127.644531 109.394531 C 128.210938 109.449219 128.777344 109.480469 129.34375 109.480469 Z M 129.34375 109.480469 " fill-opacity="1" fill-rule="nonzero"/></g><g fill="#0b103d" fill-opacity="1"><g transform="translate(141.39748, 122.552058)"><g><path d="M 56.5 -16 C 56.5 -12.507812 55.59375 -9.582031 53.78125 -7.21875 C 51.976562 -4.851562 49.546875 -3.054688 46.484375 -1.828125 C 43.421875 -0.609375 40.082031 0 36.46875 0 L 6.46875 0 L 6.46875 -62.109375 L 39.703125 -62.109375 C 42.617188 -62.109375 45.140625 -61.332031 47.265625 -59.78125 C 49.398438 -58.238281 51.035156 -56.253906 52.171875 -53.828125 C 53.304688 -51.410156 53.875 -48.890625 53.875 -46.265625 C 53.875 -43.296875 53.113281 -40.46875 51.59375 -37.78125 C 50.082031 -35.101562 47.867188 -33.125 44.953125 -31.84375 C 48.515625 -30.789062 51.328125 -28.894531 53.390625 -26.15625 C 55.460938 -23.414062 56.5 -20.03125 56.5 -16 Z M 44.34375 -18.28125 C 44.34375 -19.851562 44.019531 -21.265625 43.375 -22.515625 C 42.738281 -23.773438 41.878906 -24.769531 40.796875 -25.5 C 39.722656 -26.226562 38.488281 -26.59375 37.09375 -26.59375 L 18.546875 -26.59375 L 18.546875 -10.234375 L 36.46875 -10.234375 C 37.925781 -10.234375 39.253906 -10.597656 40.453125 -11.328125 C 41.648438 -12.054688 42.597656 -13.03125 43.296875 -14.25 C 43.992188 -15.476562 44.34375 -16.820312 44.34375 -18.28125 Z M 18.546875 -51.78125 L 18.546875 -36.125 L 34.640625 -36.125 C 35.984375 -36.125 37.207031 -36.441406 38.3125 -37.078125 C 39.414062 -37.722656 40.300781 -38.628906 40.96875 -39.796875 C 41.644531 -40.960938 41.984375 -42.363281 41.984375 -44 C 41.984375 -45.570312 41.675781 -46.941406 41.0625 -48.109375 C 40.445312 -49.273438 39.628906 -50.175781 38.609375 -50.8125 C 37.597656 -51.457031 36.445312 -51.78125 35.15625 -51.78125 Z M 18.546875 -51.78125 "/></g></g></g><g fill="#0b103d" fill-opacity="1"><g transform="translate(195.885336, 122.552058)"><g><path d="M 4.890625 -17.140625 L 4.890625 -45.828125 L 16.625 -45.828125 L 16.625 -19.6875 C 16.625 -16.1875 17.265625 -13.546875 18.546875 -11.765625 C 19.828125 -9.984375 21.722656 -9.09375 24.234375 -9.09375 C 25.742188 -9.09375 27.242188 -9.398438 28.734375 -10.015625 C 30.222656 -10.628906 31.59375 -11.546875 32.84375 -12.765625 C 34.09375 -13.992188 35.15625 -15.539062 36.03125 -17.40625 L 36.03125 -45.828125 L 47.765625 -45.828125 L 47.765625 -13.125 C 47.765625 -11.894531 47.976562 -11.015625 48.40625 -10.484375 C 48.84375 -9.960938 49.5625 -9.644531 50.5625 -9.53125 L 50.5625 0 C 49.394531 0.175781 48.414062 0.304688 47.625 0.390625 C 46.84375 0.484375 46.128906 0.53125 45.484375 0.53125 C 43.378906 0.53125 41.671875 0.0507812 40.359375 -0.90625 C 39.054688 -1.875 38.285156 -3.203125 38.046875 -4.890625 L 37.78125 -8.578125 C 35.738281 -5.484375 33.113281 -3.132812 29.90625 -1.53125 C 26.707031 0.0703125 23.179688 0.875 19.328125 0.875 C 14.609375 0.875 11.019531 -0.65625 8.5625 -3.71875 C 6.113281 -6.78125 4.890625 -11.253906 4.890625 -17.140625 Z M 4.890625 -17.140625 "/></g></g></g><g fill="#0b103d" fill-opacity="1"><g transform="translate(244.950585, 122.552058)"><g><path d="M 5.328125 0 L 5.328125 -45.828125 L 17.0625 -45.828125 L 17.0625 0 Z M 5.328125 -52.21875 L 5.328125 -63.859375 L 17.0625 -63.859375 L 17.0625 -52.21875 Z M 5.328125 -52.21875 "/></g></g></g><g fill="#0b103d" fill-opacity="1"><g transform="translate(262.267398, 122.552058)"><g><path d="M 5.25 -63.859375 L 16.96875 -63.859375 L 16.96875 -14.6875 C 16.96875 -12.59375 17.316406 -11.179688 18.015625 -10.453125 C 18.710938 -9.722656 19.675781 -9.359375 20.90625 -9.359375 C 21.832031 -9.359375 22.789062 -9.472656 23.78125 -9.703125 C 24.78125 -9.941406 25.660156 -10.234375 26.421875 -10.578125 L 27.984375 -1.65625 C 26.410156 -0.90625 24.570312 -0.328125 22.46875 0.078125 C 20.375 0.492188 18.484375 0.703125 16.796875 0.703125 C 13.117188 0.703125 10.273438 -0.269531 8.265625 -2.21875 C 6.253906 -4.175781 5.25 -6.960938 5.25 -10.578125 Z M 5.25 -63.859375 "/></g></g></g><g fill="#0b103d" fill-opacity="1"><g transform="translate(285.006804, 122.552058)"><g><path d="M 2.53125 -22.921875 C 2.53125 -27.347656 3.40625 -31.351562 5.15625 -34.9375 C 6.90625 -38.53125 9.328125 -41.375 12.421875 -43.46875 C 15.515625 -45.570312 19.039062 -46.625 23 -46.625 C 26.382812 -46.625 29.429688 -45.789062 32.140625 -44.125 C 34.859375 -42.46875 36.972656 -40.351562 38.484375 -37.78125 L 38.484375 -63.859375 L 50.203125 -63.859375 L 50.203125 -13.125 C 50.203125 -11.894531 50.40625 -11.015625 50.8125 -10.484375 C 51.226562 -9.960938 51.929688 -9.644531 52.921875 -9.53125 L 52.921875 0 C 50.878906 0.40625 49.21875 0.609375 47.9375 0.609375 C 45.832031 0.609375 44.09375 0.0859375 42.71875 -0.953125 C 41.351562 -2.003906 40.582031 -3.378906 40.40625 -5.078125 L 40.234375 -7.953125 C 38.546875 -5.097656 36.257812 -2.910156 33.375 -1.390625 C 30.488281 0.117188 27.46875 0.875 24.3125 0.875 C 21.164062 0.875 18.265625 0.265625 15.609375 -0.953125 C 12.960938 -2.179688 10.660156 -3.875 8.703125 -6.03125 C 6.742188 -8.1875 5.222656 -10.707031 4.140625 -13.59375 C 3.066406 -16.488281 2.53125 -19.597656 2.53125 -22.921875 Z M 38.484375 -16.796875 L 38.484375 -27.734375 C 37.898438 -29.421875 36.96875 -30.929688 35.6875 -32.265625 C 34.40625 -33.609375 32.976562 -34.675781 31.40625 -35.46875 C 29.832031 -36.257812 28.253906 -36.65625 26.671875 -36.65625 C 24.867188 -36.65625 23.238281 -36.273438 21.78125 -35.515625 C 20.320312 -34.753906 19.050781 -33.734375 17.96875 -32.453125 C 16.894531 -31.171875 16.078125 -29.679688 15.515625 -27.984375 C 14.960938 -26.296875 14.6875 -24.519531 14.6875 -22.65625 C 14.6875 -20.789062 14.992188 -19.023438 15.609375 -17.359375 C 16.222656 -15.703125 17.113281 -14.257812 18.28125 -13.03125 C 19.445312 -11.8125 20.800781 -10.847656 22.34375 -10.140625 C 23.894531 -9.441406 25.570312 -9.09375 27.375 -9.09375 C 28.488281 -9.09375 29.613281 -9.28125 30.75 -9.65625 C 31.882812 -10.039062 32.960938 -10.566406 33.984375 -11.234375 C 35.003906 -11.910156 35.90625 -12.726562 36.6875 -13.6875 C 37.476562 -14.644531 38.078125 -15.679688 38.484375 -16.796875 Z M 38.484375 -16.796875 "/></g></g></g><g fill="#0b103d" fill-opacity="1"><g transform="translate(336.433522, 122.552058)"><g><path d="M 57.109375 0 L 57.109375 -40.765625 L 41.203125 -10.40625 L 34.46875 -10.40625 L 18.546875 -40.765625 L 18.546875 0 L 6.46875 0 L 6.46875 -62.109375 L 19.421875 -62.109375 L 37.78125 -26.765625 L 56.328125 -62.109375 L 69.1875 -62.109375 L 69.1875 0 Z M 57.109375 0 "/></g></g></g><g fill="#0b103d" fill-opacity="1"><g transform="translate(407.101706, 122.552058)"><g><path d="M 6.296875 8.921875 C 7.347656 9.148438 8.320312 9.351562 9.21875 9.53125 C 10.125 9.707031 10.898438 9.796875 11.546875 9.796875 C 12.648438 9.796875 13.566406 9.519531 14.296875 8.96875 C 15.023438 8.414062 15.738281 7.421875 16.4375 5.984375 C 17.144531 4.554688 17.875 2.5625 18.625 0 L 0.53125 -45.828125 L 12.6875 -45.828125 L 25.015625 -11.984375 L 35.859375 -45.828125 L 47.0625 -45.828125 L 27.8125 9.09375 C 27.113281 11.132812 26.050781 12.984375 24.625 14.640625 C 23.195312 16.304688 21.414062 17.617188 19.28125 18.578125 C 17.15625 19.546875 14.78125 20.03125 12.15625 20.03125 C 11.226562 20.03125 10.296875 19.957031 9.359375 19.8125 C 8.421875 19.664062 7.398438 19.414062 6.296875 19.0625 Z M 6.296875 8.921875 "/></g></g></g><g fill="#5271ff" fill-opacity="1"><g transform="translate(450.232649, 122.552058)"><g><path d="M 49.59375 -10.578125 L 49.59375 0 L 6.46875 0 L 6.46875 -62.109375 L 48.8125 -62.109375 L 48.8125 -51.515625 L 18.546875 -51.515625 L 18.546875 -36.5625 L 44.703125 -36.5625 L 44.703125 -26.765625 L 18.546875 -26.765625 L 18.546875 -10.578125 Z M 49.59375 -10.578125 "/></g></g></g><g fill="#5271ff" fill-opacity="1"><g transform="translate(497.811061, 122.552058)"><g><path d="M 17.671875 0 L 0.78125 -45.828125 L 12.953125 -45.828125 L 24.484375 -10.671875 L 36.125 -45.828125 L 47.234375 -45.828125 L 30.4375 0 Z M 17.671875 0 "/></g></g></g><g fill="#5271ff" fill-opacity="1"><g transform="translate(540.928949, 122.552058)"><g><path d="M 26.59375 0.875 C 22.914062 0.875 19.585938 0.25 16.609375 -1 C 13.640625 -2.257812 11.101562 -3.984375 9 -6.171875 C 6.90625 -8.359375 5.289062 -10.863281 4.15625 -13.6875 C 3.019531 -16.519531 2.453125 -19.507812 2.453125 -22.65625 C 2.453125 -27.03125 3.425781 -31.023438 5.375 -34.640625 C 7.332031 -38.253906 10.132812 -41.15625 13.78125 -43.34375 C 17.425781 -45.53125 21.722656 -46.625 26.671875 -46.625 C 31.691406 -46.625 35.976562 -45.53125 39.53125 -43.34375 C 43.09375 -41.15625 45.820312 -38.265625 47.71875 -34.671875 C 49.613281 -31.085938 50.5625 -27.226562 50.5625 -23.09375 C 50.5625 -22.394531 50.53125 -21.679688 50.46875 -20.953125 C 50.40625 -20.222656 50.347656 -19.625 50.296875 -19.15625 L 14.875 -19.15625 C 15.101562 -16.820312 15.785156 -14.78125 16.921875 -13.03125 C 18.054688 -11.28125 19.515625 -9.953125 21.296875 -9.046875 C 23.078125 -8.148438 24.988281 -7.703125 27.03125 -7.703125 C 29.363281 -7.703125 31.5625 -8.269531 33.625 -9.40625 C 35.695312 -10.539062 37.113281 -12.039062 37.875 -13.90625 L 47.9375 -11.109375 C 46.820312 -8.773438 45.226562 -6.703125 43.15625 -4.890625 C 41.09375 -3.085938 38.660156 -1.675781 35.859375 -0.65625 C 33.054688 0.363281 29.96875 0.875 26.59375 0.875 Z M 14.609375 -26.59375 L 38.578125 -26.59375 C 38.335938 -28.925781 37.675781 -30.953125 36.59375 -32.671875 C 35.519531 -34.390625 34.109375 -35.726562 32.359375 -36.6875 C 30.609375 -37.65625 28.65625 -38.140625 26.5 -38.140625 C 24.40625 -38.140625 22.492188 -37.65625 20.765625 -36.6875 C 19.046875 -35.726562 17.644531 -34.390625 16.5625 -32.671875 C 15.488281 -30.953125 14.835938 -28.925781 14.609375 -26.59375 Z M 14.609375 -26.59375 "/></g></g></g><g fill="#5271ff" fill-opacity="1"><g transform="translate(588.332441, 122.552058)"><g><path d="M 47.9375 0 L 36.21875 0 L 36.21875 -25.71875 C 36.21875 -29.382812 35.570312 -32.0625 34.28125 -33.75 C 33 -35.445312 31.222656 -36.296875 28.953125 -36.296875 C 27.378906 -36.296875 25.789062 -35.882812 24.1875 -35.0625 C 22.582031 -34.25 21.140625 -33.128906 19.859375 -31.703125 C 18.578125 -30.273438 17.644531 -28.628906 17.0625 -26.765625 L 17.0625 0 L 5.328125 0 L 5.328125 -45.828125 L 15.921875 -45.828125 L 15.921875 -37.34375 C 17.085938 -39.332031 18.570312 -41.007812 20.375 -42.375 C 22.1875 -43.75 24.269531 -44.800781 26.625 -45.53125 C 28.988281 -46.257812 31.484375 -46.625 34.109375 -46.625 C 36.972656 -46.625 39.320312 -46.113281 41.15625 -45.09375 C 42.988281 -44.070312 44.382812 -42.703125 45.34375 -40.984375 C 46.3125 -39.265625 46.984375 -37.320312 47.359375 -35.15625 C 47.742188 -33 47.9375 -30.816406 47.9375 -28.609375 Z M 47.9375 0 "/></g></g></g><g fill="#5271ff" fill-opacity="1"><g transform="translate(636.173232, 122.552058)"><g><path d="M 32.796875 -2.359375 C 31.804688 -1.953125 30.609375 -1.484375 29.203125 -0.953125 C 27.804688 -0.429688 26.304688 -0.015625 24.703125 0.296875 C 23.097656 0.617188 21.484375 0.78125 19.859375 0.78125 C 17.703125 0.78125 15.71875 0.40625 13.90625 -0.34375 C 12.101562 -1.101562 10.660156 -2.3125 9.578125 -3.96875 C 8.492188 -5.632812 7.953125 -7.8125 7.953125 -10.5 L 7.953125 -36.828125 L 1.921875 -36.828125 L 1.921875 -45.828125 L 7.953125 -45.828125 L 7.953125 -60.703125 L 19.6875 -60.703125 L 19.6875 -45.828125 L 29.296875 -45.828125 L 29.296875 -36.828125 L 19.6875 -36.828125 L 19.6875 -14.4375 C 19.738281 -12.863281 20.171875 -11.722656 20.984375 -11.015625 C 21.804688 -10.316406 22.828125 -9.96875 24.046875 -9.96875 C 25.273438 -9.96875 26.472656 -10.171875 27.640625 -10.578125 C 28.804688 -10.992188 29.738281 -11.347656 30.4375 -11.640625 Z M 32.796875 -2.359375 "/></g></g></g><g clip-path="url(#aef0615bf6)"><path fill="#5271ff" d="M 249.839844 58.320312 L 262.074219 58.320312 L 262.074219 70.890625 L 249.839844 70.890625 Z M 249.839844 58.320312 " fill-opacity="1" fill-rule="nonzero"/></g></svg>