<?xml version="1.0" encoding="utf-8"?>
<!-- Generator: Adobe Illustrator 28.3.0, SVG Export Plug-In . SVG Version: 6.00 Build 0)  -->
<svg version="1.1" id="Layer_1" xmlns="http://www.w3.org/2000/svg" xmlns:xlink="http://www.w3.org/1999/xlink" x="0px" y="0px"
	 viewBox="0 0 712 159" style="enable-background:new 0 0 712 159;" xml:space="preserve">
<style type="text/css">
	.st0{fill:#0B103D;}
	.st1{fill:#5271FF;}
	.st2{clip-path:url(#SVGID_00000030463033216151711240000017345425249570268310_);fill:#5271FF;}
</style>
<g>
	<g transform="translate(113.930477, 82.156757)">
		<g>
			<path class="st0" d="M95.2,11.2c0,3.5-0.9,6.5-2.8,8.9c-1.8,2.4-4.3,4.2-7.4,5.4c-3.1,1.2-6.5,1.9-10.1,1.9H44.5v-62.9h33.6
				c2.9,0,5.5,0.8,7.6,2.4c2.2,1.6,3.8,3.6,5,6s1.7,5,1.7,7.6c0,3-0.8,5.9-2.3,8.6s-3.8,4.7-6.7,6c3.6,1.1,6.4,3,8.5,5.8
				C94.1,3.7,95.2,7.1,95.2,11.2z M82.9,8.9c0-1.6-0.3-3-1-4.3c-0.6-1.3-1.5-2.3-2.6-3c-1.1-0.8-2.3-1.1-3.8-1.1H56.7V17h18.1
				c1.5,0,2.8-0.4,4-1.1c1.2-0.7,2.2-1.7,2.9-3C82.5,11.7,82.9,10.4,82.9,8.9z M56.7-25v15.8H73c1.3,0,2.6-0.3,3.7-1s2-1.6,2.7-2.8
				s1-2.6,1-4.3c0-1.6-0.3-3-0.9-4.2S78-23.6,77-24.2c-1-0.7-2.2-1-3.5-1H56.7V-25z"/>
		</g>
	</g>
</g>
<g>
	<g transform="translate(155.294345, 82.156757)">
		<g>
			<path class="st0" d="M56.7,10v-29h11.9V7.5c0,3.5,0.6,6.2,1.9,8s3.2,2.7,5.8,2.7c1.5,0,3-0.3,4.5-0.9s2.9-1.6,4.2-2.8
				c1.3-1.3,2.4-2.8,3.2-4.7V-19h11.9v33.1c0,1.2,0.2,2.1,0.7,2.6c0.4,0.5,1.2,0.9,2.2,1v9.6c-1.2,0.2-2.2,0.3-3,0.4
				s-1.5,0.1-2.2,0.1c-2.1,0-3.8-0.5-5.2-1.5c-1.3-1-2.1-2.3-2.4-4L90,18.7c-2.1,3.1-4.7,5.5-8,7.1c-3.2,1.6-6.8,2.4-10.7,2.4
				c-4.8,0-8.4-1.5-10.9-4.6C58,20.5,56.7,16,56.7,10z"/>
		</g>
	</g>
</g>
<g transform="translate(192.5417, 82.156757)">
	<g>
		<rect x="69.6" y="-19" class="st0" width="11.9" height="46.4"/>
	</g>
</g>
<g>
	<g transform="translate(205.687571, 82.156757)">
		<g>
			<path class="st0" d="M73.9-37.2h11.9v49.8c0,2.1,0.4,3.6,1.1,4.3c0.7,0.7,1.7,1.1,2.9,1.1c0.9,0,1.9-0.1,2.9-0.4
				c1-0.2,1.9-0.5,2.7-0.9l1.6,9c-1.6,0.8-3.5,1.4-5.6,1.8s-4,0.6-5.8,0.6c-3.7,0-6.6-1-8.6-3s-3-4.8-3-8.5L73.9-37.2L73.9-37.2z"/>
		</g>
	</g>
</g>
<g>
	<g transform="translate(222.949946, 82.156757)">
		<g>
			<path class="st0" d="M76.9,4.2c0-4.5,0.9-8.5,2.6-12.2c1.8-3.6,4.2-6.5,7.4-8.6c3.1-2.1,6.7-3.2,10.7-3.2c3.4,0,6.5,0.8,9.2,2.5
				c2.8,1.7,4.9,3.8,6.4,6.4v-26.4h11.9v51.4c0,1.2,0.2,2.1,0.6,2.6s1.1,0.9,2.1,1v9.6c-2.1,0.4-3.8,0.6-5.1,0.6
				c-2.1,0-3.9-0.5-5.3-1.6s-2.2-2.5-2.3-4.2l-0.2-2.9c-1.7,2.9-4,5.1-7,6.6c-2.9,1.5-6,2.3-9.2,2.3s-6.1-0.6-8.8-1.9
				c-2.7-1.2-5-2.9-7-5.1s-3.5-4.7-4.6-7.6C77.4,10.7,76.9,7.6,76.9,4.2z M113.3,10.4V-0.7c-0.6-1.7-1.6-3.2-2.9-4.6
				s-2.7-2.4-4.3-3.2c-1.6-0.8-3.2-1.2-4.8-1.2c-1.8,0-3.5,0.4-5,1.1c-1.5,0.8-2.8,1.8-3.9,3.1S90.5-2.7,89.9-1s-0.8,3.5-0.8,5.4
				s0.3,3.7,0.9,5.4s1.5,3.1,2.7,4.4c1.2,1.2,2.5,2.2,4.1,2.9c1.6,0.7,3.3,1.1,5.1,1.1c1.1,0,2.3-0.2,3.4-0.6
				c1.2-0.4,2.2-0.9,3.3-1.6c1-0.7,2-1.5,2.8-2.5C112.2,12.6,112.9,11.5,113.3,10.4z"/>
		</g>
	</g>
</g>
<g>
	<g transform="translate(261.989984, 82.156757)">
		<g>
			<path class="st0" d="M145.1,27.4v-41.2L129,16.8h-6.8l-16.1-30.7v41.2H93.9v-62.9H107l18.6,35.8l18.7-35.8h13v62.9h-12.2V27.4z"
				/>
		</g>
	</g>
</g>
<g>
	<g transform="translate(315.636974, 82.156757)">
		<g>
			<path class="st0" d="M111.6,36.4c1.1,0.2,2,0.4,3,0.6c0.9,0.2,1.7,0.3,2.4,0.3c1.1,0,2.1-0.3,2.8-0.9c0.7-0.6,1.5-1.6,2.2-3
				c0.7-1.4,1.4-3.5,2.2-6.1L105.7-19H118l12.5,34.2l11-34.2h11.3l-19.5,55.6c-0.7,2.1-1.8,3.9-3.2,5.6c-1.4,1.7-3.2,3-5.4,4
				c-2.2,1-4.6,1.5-7.2,1.5c-0.9,0-1.9-0.1-2.8-0.2c-0.9-0.1-2-0.4-3.1-0.8C111.6,46.7,111.6,36.4,111.6,36.4z"/>
		</g>
	</g>
</g>
<g>
	<g transform="translate(348.379365, 82.156757)">
		<g>
			<path class="st1" d="M166.3,16.7v10.7h-43.6v-62.9h42.9v10.7H135v15.1h26.5v9.9H135v16.4h31.3V16.7z"/>
		</g>
	</g>
</g>
<g>
	<g transform="translate(384.498003, 82.156757)">
		<g>
			<path class="st1" d="M146,27.4L129-19h12.3L153,16.6L164.7-19H176l-17,46.4C159,27.4,146,27.4,146,27.4z"/>
		</g>
	</g>
</g>
<g>
	<g transform="translate(417.230483, 82.156757)">
		<g>
			<path class="st1" d="M166,28.3c-3.7,0-7.1-0.6-10.1-1.9s-5.6-3-7.7-5.2c-2.1-2.2-3.8-4.8-4.9-7.6c-1.2-2.9-1.7-5.9-1.7-9.1
				c0-4.4,1-8.5,3-12.1c2-3.7,4.8-6.6,8.5-8.8s8-3.3,13.1-3.3s9.4,1.1,13,3.3s6.4,5.1,8.3,8.8c1.9,3.6,2.9,7.5,2.9,11.7
				c0,0.7,0,1.4-0.1,2.2C190.1,6.9,190,7.5,190,8h-35.9c0.2,2.4,0.9,4.4,2.1,6.2c1.2,1.8,2.6,3.1,4.4,4c1.8,0.9,3.7,1.4,5.8,1.4
				c2.4,0,4.6-0.6,6.7-1.7c2.1-1.2,3.5-2.7,4.3-4.6l10.2,2.8c-1.1,2.4-2.7,4.5-4.8,6.3s-4.6,3.3-7.4,4.3
				C172.5,27.7,169.4,28.3,166,28.3z M153.9,0.5h24.2c-0.2-2.4-0.9-4.4-2-6.1s-2.5-3.1-4.3-4.1s-3.7-1.5-5.9-1.5
				c-2.1,0-4.1,0.5-5.8,1.5s-3.2,2.3-4.2,4.1C154.8-3.9,154.1-1.9,153.9,0.5z"/>
		</g>
	</g>
</g>
<g>
	<g transform="translate(453.216332, 82.156757)">
		<g>
			<path class="st1" d="M199.6,27.4h-11.9v-26c0-3.7-0.7-6.4-2-8.1s-3.1-2.6-5.4-2.6c-1.6,0-3.2,0.4-4.8,1.2s-3.1,2-4.4,3.4
				c-1.3,1.4-2.2,3.1-2.8,5v27.1h-11.9V-19h10.7v8.6c1.2-2,2.7-3.7,4.5-5.1s3.9-2.4,6.3-3.2c2.4-0.8,4.9-1.1,7.6-1.1
				c2.9,0,5.3,0.5,7.1,1.6c1.9,1,3.3,2.4,4.2,4.2c1,1.7,1.6,3.7,2,5.9s0.6,4.4,0.6,6.6v28.9H199.6z"/>
		</g>
	</g>
</g>
<g>
	<g transform="translate(489.534153, 82.156757)">
		<g>
			<path class="st1" d="M196.4,25c-1,0.4-2.2,0.9-3.6,1.4c-1.4,0.5-2.9,1-4.6,1.3c-1.6,0.3-3.3,0.5-4.9,0.5c-2.2,0-4.2-0.4-6-1.1
				c-1.8-0.8-3.3-2-4.4-3.7c-1.1-1.7-1.6-3.9-1.6-6.6V-9.9h-6.1V-19h6.1v-15.1h11.9V-19h9.7v9.1h-9.7v22.7c0.1,1.6,0.5,2.8,1.3,3.5
				c0.8,0.7,1.9,1.1,3.1,1.1c1.2,0,2.5-0.2,3.6-0.6c1.2-0.4,2.1-0.8,2.8-1.1L196.4,25z"/>
		</g>
	</g>
</g>
<g>
	<g>
		<defs>
			<rect id="SVGID_1_" x="261.9" y="44.9" width="12.4" height="12.2"/>
		</defs>
		<clipPath id="SVGID_00000117669762063097578810000000763797923835037602_">
			<use xlink:href="#SVGID_1_"  style="overflow:visible;"/>
		</clipPath>
		<path style="clip-path:url(#SVGID_00000117669762063097578810000000763797923835037602_);fill:#5271FF;" d="M274.2,44.9v12.2
			h-12.4"/>
	</g>
</g>
<path class="st0" d="M69.1,66.9c0-2.1-0.6-3.7-1.9-4.7c-0.7-0.6-1.6-1-2.8-1.2c-1.2-0.2-2.8-0.3-4.9-0.3H52v12.7h9.5
	C66.5,73.3,69.1,71.1,69.1,66.9z"/>
<path class="st0" d="M70,86.5c-1.5-0.9-3.8-1.3-7-1.3H52v13.3h9.9c2,0,3.7-0.1,5.1-0.4s2.5-0.8,3.3-1.5c1.2-1,1.8-2.7,1.8-5
	C72.2,89.1,71.5,87.4,70,86.5z"/>
<path class="st0" d="M137.1,68.4V39.8h-107v21.9v6.7c6.4,0,11.7,5,11.7,11.1c0,6.2-5.2,11.1-11.7,11.1v6.7v21.9h107V90.6
	c-6.4,0-11.7-5-11.7-11.1C125.5,73.3,130.7,68.4,137.1,68.4z M84.9,101.3c-1.1,2.6-2.6,4.6-4.4,6.1c-4,3.2-9.5,4.8-16.7,4.8H37.6
	V95.8c6.5-2.8,11.1-9,11.1-16.3S44.1,66,37.6,63.2V46.9h25c8.1,0,13.8,1.9,17.2,5.6c2.4,2.7,3.6,6.2,3.6,10.7c0,3.6-0.7,6.6-2.1,9.2
	c-1.4,2.5-3.4,4.3-6.1,5.5c3.6,0.9,6.4,2.6,8.4,5.1c2,2.6,2.9,5.8,2.9,9.8C86.5,95.9,86,98.8,84.9,101.3z"/>
<rect x="261.9" y="44.9" class="st1" width="12.3" height="12.2"/>
</svg>
