<svg width="656" height="91" viewBox="0 0 656 91" fill="none" xmlns="http://www.w3.org/2000/svg">
<path d="M179.13 54.3567C179.13 57.8567 178.23 60.8567 176.33 63.2567C174.53 65.6567 172.03 67.4567 168.93 68.6567C165.83 69.8567 162.43 70.5567 158.83 70.5567H128.43V7.65674H162.03C164.93 7.65674 167.53 8.45674 169.63 10.0567C171.83 11.6567 173.43 13.6567 174.63 16.0567C175.83 18.4567 176.33 21.0567 176.33 23.6567C176.33 26.6567 175.53 29.5567 174.03 32.2567C172.53 34.9567 170.23 36.9567 167.33 38.2567C170.93 39.3567 173.73 41.2567 175.83 44.0567C178.03 46.8567 179.13 50.2567 179.13 54.3567ZM166.83 52.0567C166.83 50.4567 166.53 49.0567 165.83 47.7567C165.23 46.4567 164.33 45.4567 163.23 44.7567C162.13 43.9567 160.93 43.6567 159.43 43.6567H140.63V60.1567H158.73C160.23 60.1567 161.53 59.7567 162.73 59.0567C163.93 58.3567 164.93 57.3567 165.63 56.0567C166.43 54.8567 166.83 53.5567 166.83 52.0567ZM140.63 18.1567V33.9567H156.93C158.23 33.9567 159.53 33.6567 160.63 32.9567C161.73 32.2567 162.63 31.3567 163.33 30.1567C164.03 28.9567 164.33 27.5567 164.33 25.8567C164.33 24.2567 164.03 22.8567 163.43 21.6567C162.83 20.4567 161.93 19.5567 160.93 18.9567C159.93 18.2567 158.73 17.9567 157.43 17.9567H140.63V18.1567Z" fill="#0B103D"/>
<path d="M181.996 53.1567V24.1567H193.896V50.6567C193.896 54.1567 194.496 56.8567 195.796 58.6567C197.096 60.4567 198.996 61.3567 201.596 61.3567C203.096 61.3567 204.596 61.0567 206.096 60.4567C207.596 59.8567 208.996 58.8567 210.296 57.6567C211.596 56.3567 212.696 54.8567 213.496 52.9567V24.1567H225.396V57.2567C225.396 58.4567 225.596 59.3567 226.096 59.8567C226.496 60.3567 227.296 60.7567 228.296 60.8567V70.4567C227.096 70.6567 226.096 70.7567 225.296 70.8567C224.496 70.9567 223.796 70.9567 223.096 70.9567C220.996 70.9567 219.296 70.4567 217.896 69.4567C216.596 68.4567 215.796 67.1567 215.496 65.4567L215.296 61.8567C213.196 64.9567 210.596 67.3567 207.296 68.9567C204.096 70.5567 200.496 71.3567 196.596 71.3567C191.796 71.3567 188.196 69.8567 185.696 66.7567C183.296 63.6567 181.996 59.1567 181.996 53.1567Z" fill="#0B103D"/>
<path d="M244.041 24.1567H232.141V70.5567H244.041V24.1567Z" fill="#0B103D"/>
<path d="M249.586 5.95679H261.486V55.7568C261.486 57.8568 261.886 59.3568 262.586 60.0568C263.286 60.7568 264.286 61.1568 265.486 61.1568C266.386 61.1568 267.386 61.0568 268.386 60.7568C269.386 60.5568 270.286 60.2568 271.086 59.8568L272.686 68.8568C271.086 69.6568 269.186 70.2568 267.086 70.6568C264.986 71.0568 263.086 71.2568 261.286 71.2568C257.586 71.2568 254.686 70.2568 252.686 68.2568C250.686 66.2568 249.686 63.4568 249.686 59.7568L249.586 5.95679Z" fill="#0B103D"/>
<path d="M269.852 47.3567C269.852 42.8567 270.752 38.8567 272.452 35.1567C274.252 31.5567 276.652 28.6567 279.852 26.5567C282.952 24.4567 286.552 23.3567 290.552 23.3567C293.952 23.3567 297.052 24.1567 299.752 25.8567C302.552 27.5567 304.652 29.6567 306.152 32.2567V5.85669H318.052V57.2567C318.052 58.4567 318.252 59.3567 318.652 59.8567C319.052 60.3567 319.752 60.7567 320.752 60.8567V70.4567C318.652 70.8567 316.952 71.0567 315.652 71.0567C313.552 71.0567 311.752 70.5567 310.352 69.4567C308.952 68.3567 308.152 66.9567 308.052 65.2567L307.852 62.3567C306.152 65.2567 303.852 67.4567 300.852 68.9567C297.952 70.4567 294.852 71.2567 291.652 71.2567C288.452 71.2567 285.552 70.6567 282.852 69.3567C280.152 68.1567 277.852 66.4567 275.852 64.2567C273.852 62.0567 272.352 59.5567 271.252 56.6567C270.352 53.8567 269.852 50.7567 269.852 47.3567ZM306.252 53.5567V42.4567C305.652 40.7567 304.652 39.2567 303.352 37.8567C302.052 36.4567 300.652 35.4567 299.052 34.6567C297.452 33.8567 295.852 33.4567 294.252 33.4567C292.452 33.4567 290.752 33.8567 289.252 34.5567C287.752 35.3567 286.452 36.3567 285.352 37.6567C284.252 38.9567 283.452 40.4567 282.852 42.1567C282.252 43.8567 282.052 45.6567 282.052 47.5567C282.052 49.4567 282.352 51.2567 282.952 52.9567C283.552 54.6567 284.452 56.0567 285.652 57.3567C286.852 58.5567 288.152 59.5567 289.752 60.2567C291.352 60.9567 293.052 61.3567 294.852 61.3567C295.952 61.3567 297.152 61.1567 298.252 60.7567C299.452 60.3567 300.452 59.8567 301.552 59.1567C302.552 58.4567 303.552 57.6567 304.352 56.6567C305.152 55.7567 305.852 54.6567 306.252 53.5567Z" fill="#0B103D"/>
<path d="M377.091 70.5566V29.3566L360.991 59.9566H354.191L338.091 29.2566V70.4566H325.891V7.55664H338.991L357.591 43.3566L376.291 7.55664H389.291V70.4566H377.091V70.5566Z" fill="#0B103D"/>
<path d="M397.236 79.5567C398.336 79.7567 399.236 79.9567 400.236 80.1567C401.136 80.3567 401.936 80.4567 402.636 80.4567C403.736 80.4567 404.736 80.1567 405.436 79.5567C406.136 78.9567 406.936 77.9567 407.636 76.5567C408.336 75.1567 409.036 73.0567 409.836 70.4567L391.336 24.1567H403.636L416.136 58.3567L427.136 24.1567H438.436L418.936 79.7567C418.236 81.8567 417.136 83.6567 415.736 85.3567C414.336 87.0567 412.536 88.3567 410.336 89.3567C408.136 90.3567 405.736 90.8567 403.136 90.8567C402.236 90.8567 401.236 90.7567 400.336 90.6567C399.436 90.5567 398.336 90.2567 397.236 89.8567V79.5567Z" fill="#0B103D"/>
<path d="M484.678 59.8567V70.5567H441.078V7.65674H483.978V18.3567H453.378V33.4567H479.878V43.3567H453.378V59.7567H484.678V59.8567Z" fill="#0B103D"/>
<path d="M500.5 70.5567L483.5 24.1567H495.8L507.5 59.7567L519.2 24.1567H530.5L513.5 70.5567H500.5Z" fill="#0B103D"/>
<path d="M553.232 71.4568C549.532 71.4568 546.132 70.8568 543.132 69.5568C540.132 68.2568 537.532 66.5568 535.432 64.3568C533.332 62.1568 531.632 59.5568 530.532 56.7568C529.332 53.8568 528.832 50.8568 528.832 47.6568C528.832 43.2568 529.832 39.1568 531.832 35.5568C533.832 31.8568 536.632 28.9568 540.332 26.7568C544.032 24.5568 548.332 23.4568 553.432 23.4568C558.532 23.4568 562.832 24.5568 566.432 26.7568C570.032 28.9568 572.832 31.8568 574.732 35.5568C576.632 39.1568 577.632 43.0568 577.632 47.2568C577.632 47.9568 577.632 48.6568 577.532 49.4568C577.332 50.0568 577.232 50.6568 577.232 51.1568H541.332C541.532 53.5568 542.232 55.5568 543.432 57.3568C544.632 59.1568 546.032 60.4568 547.832 61.3568C549.632 62.2568 551.532 62.7568 553.632 62.7568C556.032 62.7568 558.232 62.1568 560.332 61.0568C562.432 59.8568 563.832 58.3568 564.632 56.4568L574.832 59.2568C573.732 61.6568 572.132 63.7568 570.032 65.5568C567.932 67.3568 565.432 68.8568 562.632 69.8568C559.732 70.8568 556.632 71.4568 553.232 71.4568ZM541.132 43.6568H565.332C565.132 41.2568 564.432 39.2568 563.332 37.5568C562.232 35.8568 560.832 34.4568 559.032 33.4568C557.232 32.4568 555.332 31.9568 553.132 31.9568C551.032 31.9568 549.032 32.4568 547.332 33.4568C545.632 34.4568 544.132 35.7568 543.132 37.5568C542.032 39.2568 541.332 41.2568 541.132 43.6568Z" fill="#0B103D"/>
<path d="M622.817 70.5567H610.917V44.5567C610.917 40.8567 610.217 38.1567 608.917 36.4567C607.617 34.7567 605.817 33.8567 603.517 33.8567C601.917 33.8567 600.317 34.2567 598.717 35.0567C597.117 35.8567 595.617 37.0567 594.317 38.4567C593.017 39.8567 592.117 41.5567 591.517 43.4567V70.5567H579.617V24.1567H590.317V32.7567C591.517 30.7567 593.017 29.0567 594.817 27.6567C596.617 26.2567 598.717 25.2567 601.117 24.4567C603.517 23.6567 606.017 23.3567 608.717 23.3567C611.617 23.3567 614.017 23.8567 615.817 24.9567C617.717 25.9567 619.117 27.3567 620.017 29.1567C621.017 30.8567 621.617 32.8567 622.017 35.0567C622.417 37.2567 622.617 39.4567 622.617 41.6567V70.5567H622.817Z" fill="#0B103D"/>
<path d="M655.934 68.1566C654.934 68.5566 653.734 69.0566 652.334 69.5566C650.934 70.0566 649.434 70.5566 647.734 70.8566C646.134 71.1566 644.434 71.3566 642.834 71.3566C640.634 71.3566 638.634 70.9566 636.834 70.2566C635.034 69.4566 633.534 68.2566 632.434 66.5566C631.334 64.8566 630.834 62.6566 630.834 59.9566V33.2566H624.734V24.1566H630.834V9.05664H642.734V24.1566H652.434V33.2566H642.734V55.9566C642.834 57.5566 643.234 58.7566 644.034 59.4566C644.834 60.1566 645.934 60.5566 647.134 60.5566C648.334 60.5566 649.634 60.3566 650.734 59.9566C651.934 59.5566 652.834 59.1566 653.534 58.8566L655.934 68.1566Z" fill="#0B103D"/>
<mask id="mask0_21_379" style="mask-type:luminance" maskUnits="userSpaceOnUse" x="231" y="5" width="14" height="14">
<path d="M244.298 5.8999H231.898V18.0999H244.298V5.8999Z" fill="white"/>
</mask>
<g mask="url(#mask0_21_379)">
<path d="M244.197 5.8999V18.0999H231.797" fill="#5271FF"/>
</g>
<path d="M39.1 27.9C39.1 25.8 38.5 24.2 37.2 23.2C36.5 22.6 35.6 22.2 34.4 22C33.2 21.8 31.6 21.7 29.5 21.7H22V34.4H31.5C36.5 34.3 39.1 32.1 39.1 27.9Z" fill="#0B103D"/>
<path d="M40 47.5C38.5 46.6 36.2 46.2 33 46.2H22V59.5H31.9C33.9 59.5 35.6 59.4 37 59.1C38.4 58.8 39.5 58.3 40.3 57.6C41.5 56.6 42.1 54.9 42.1 52.6C42.2 50.1 41.5 48.4 40 47.5Z" fill="#0B103D"/>
<path d="M107.102 29.4001V0.800049H0.101562V22.7001V29.4001C6.50156 29.4001 11.8016 34.4 11.8016 40.5C11.8016 46.7 6.60156 51.6 0.101562 51.6V58.3001V80.2H107.102V51.6C100.702 51.6 95.4016 46.6 95.4016 40.5C95.5016 34.3 100.702 29.4001 107.102 29.4001ZM54.9016 62.3001C53.8016 64.9001 52.3016 66.9001 50.5016 68.4001C46.5016 71.6001 41.0016 73.2 33.8016 73.2H7.60156V56.8001C14.1016 54.0001 18.7016 47.8 18.7016 40.5C18.7016 33.2 14.1016 27.0001 7.60156 24.2001V7.90005H32.6016C40.7016 7.90005 46.4016 9.80005 49.8016 13.5C52.2016 16.2 53.4016 19.7001 53.4016 24.2001C53.4016 27.8001 52.7016 30.8001 51.3016 33.4001C49.9016 35.9001 47.9016 37.7001 45.2016 38.9001C48.8016 39.8001 51.6016 41.5 53.6016 44C55.6016 46.6 56.5016 49.8001 56.5016 53.8001C56.5016 56.9001 56.0016 59.8001 54.9016 62.3001Z" fill="#0B103D"/>
<path d="M244.198 5.8999H231.898V18.0999H244.198V5.8999Z" fill="#0B103D"/>
</svg>
