<svg width="712" height="159" viewBox="0 0 712 159" fill="none" xmlns="http://www.w3.org/2000/svg">
<path d="M209.13 93.3567C209.13 96.8567 208.23 99.8567 206.33 102.257C204.53 104.657 202.03 106.457 198.93 107.657C195.83 108.857 192.43 109.557 188.83 109.557H158.43V46.6567H192.03C194.93 46.6567 197.53 47.4567 199.63 49.0567C201.83 50.6567 203.43 52.6567 204.63 55.0567C205.83 57.4567 206.33 60.0567 206.33 62.6567C206.33 65.6567 205.53 68.5567 204.03 71.2567C202.53 73.9567 200.23 75.9567 197.33 77.2567C200.93 78.3567 203.73 80.2567 205.83 83.0567C208.03 85.8567 209.13 89.2567 209.13 93.3567ZM196.83 91.0567C196.83 89.4567 196.53 88.0567 195.83 86.7567C195.23 85.4567 194.33 84.4567 193.23 83.7567C192.13 82.9567 190.93 82.6567 189.43 82.6567H170.63V99.1567H188.73C190.23 99.1567 191.53 98.7567 192.73 98.0567C193.93 97.3567 194.93 96.3567 195.63 95.0567C196.43 93.8567 196.83 92.5567 196.83 91.0567ZM170.63 57.1567V72.9567H186.93C188.23 72.9567 189.53 72.6567 190.63 71.9567C191.73 71.2567 192.63 70.3567 193.33 69.1567C194.03 67.9567 194.33 66.5567 194.33 64.8567C194.33 63.2567 194.03 61.8567 193.43 60.6567C192.83 59.4567 191.93 58.5567 190.93 57.9567C189.93 57.2567 188.73 56.9567 187.43 56.9567H170.63V57.1567Z" fill="white"/>
<path d="M211.996 92.1567V63.1567H223.896V89.6567C223.896 93.1567 224.496 95.8567 225.796 97.6567C227.096 99.4567 228.996 100.357 231.596 100.357C233.096 100.357 234.596 100.057 236.096 99.4567C237.596 98.8567 238.996 97.8567 240.296 96.6567C241.596 95.3567 242.696 93.8567 243.496 91.9567V63.1567H255.396V96.2567C255.396 97.4567 255.596 98.3567 256.096 98.8567C256.496 99.3567 257.296 99.7567 258.296 99.8567V109.457C257.096 109.657 256.096 109.757 255.296 109.857C254.496 109.957 253.796 109.957 253.096 109.957C250.996 109.957 249.296 109.457 247.896 108.457C246.596 107.457 245.796 106.157 245.496 104.457L245.296 100.857C243.196 103.957 240.596 106.357 237.296 107.957C234.096 109.557 230.496 110.357 226.596 110.357C221.796 110.357 218.196 108.857 215.696 105.757C213.296 102.657 211.996 98.1567 211.996 92.1567Z" fill="white"/>
<path d="M274.041 63.1567H262.141V109.557H274.041V63.1567Z" fill="white"/>
<path d="M279.586 44.9568H291.486V94.7568C291.486 96.8568 291.886 98.3568 292.586 99.0568C293.286 99.7568 294.286 100.157 295.486 100.157C296.386 100.157 297.386 100.057 298.386 99.7568C299.386 99.5568 300.286 99.2568 301.086 98.8568L302.686 107.857C301.086 108.657 299.186 109.257 297.086 109.657C294.986 110.057 293.086 110.257 291.286 110.257C287.586 110.257 284.686 109.257 282.686 107.257C280.686 105.257 279.686 102.457 279.686 98.7568L279.586 44.9568Z" fill="white"/>
<path d="M299.852 86.3567C299.852 81.8567 300.752 77.8567 302.452 74.1567C304.252 70.5567 306.652 67.6567 309.852 65.5567C312.952 63.4567 316.552 62.3567 320.552 62.3567C323.952 62.3567 327.052 63.1567 329.752 64.8567C332.552 66.5567 334.652 68.6567 336.152 71.2567V44.8567H348.052V96.2567C348.052 97.4567 348.252 98.3567 348.652 98.8567C349.052 99.3567 349.752 99.7567 350.752 99.8567V109.457C348.652 109.857 346.952 110.057 345.652 110.057C343.552 110.057 341.752 109.557 340.352 108.457C338.952 107.357 338.152 105.957 338.052 104.257L337.852 101.357C336.152 104.257 333.852 106.457 330.852 107.957C327.952 109.457 324.852 110.257 321.652 110.257C318.452 110.257 315.552 109.657 312.852 108.357C310.152 107.157 307.852 105.457 305.852 103.257C303.852 101.057 302.352 98.5567 301.252 95.6567C300.352 92.8567 299.852 89.7567 299.852 86.3567ZM336.252 92.5567V81.4567C335.652 79.7567 334.652 78.2567 333.352 76.8567C332.052 75.4567 330.652 74.4567 329.052 73.6567C327.452 72.8567 325.852 72.4567 324.252 72.4567C322.452 72.4567 320.752 72.8567 319.252 73.5567C317.752 74.3567 316.452 75.3567 315.352 76.6567C314.252 77.9567 313.452 79.4567 312.852 81.1567C312.252 82.8567 312.052 84.6567 312.052 86.5567C312.052 88.4567 312.352 90.2567 312.952 91.9567C313.552 93.6567 314.452 95.0567 315.652 96.3567C316.852 97.5567 318.152 98.5567 319.752 99.2567C321.352 99.9567 323.052 100.357 324.852 100.357C325.952 100.357 327.152 100.157 328.252 99.7567C329.452 99.3567 330.452 98.8567 331.552 98.1567C332.552 97.4567 333.552 96.6567 334.352 95.6567C335.152 94.7567 335.852 93.6567 336.252 92.5567Z" fill="white"/>
<path d="M407.091 109.557V68.3566L390.991 98.9566H384.191L368.091 68.2566V109.457H355.891V46.5566H368.991L387.591 82.3566L406.291 46.5566H419.291V109.457H407.091V109.557Z" fill="white"/>
<path d="M427.236 118.557C428.336 118.757 429.236 118.957 430.236 119.157C431.136 119.357 431.936 119.457 432.636 119.457C433.736 119.457 434.736 119.157 435.436 118.557C436.136 117.957 436.936 116.957 437.636 115.557C438.336 114.157 439.036 112.057 439.836 109.457L421.336 63.1567H433.636L446.136 97.3567L457.136 63.1567H468.436L448.936 118.757C448.236 120.857 447.136 122.657 445.736 124.357C444.336 126.057 442.536 127.357 440.336 128.357C438.136 129.357 435.736 129.857 433.136 129.857C432.236 129.857 431.236 129.757 430.336 129.657C429.436 129.557 428.336 129.257 427.236 128.857V118.557Z" fill="white"/>
<path d="M514.678 98.8567V109.557H471.078V46.6567H513.978V57.3567H483.378V72.4567H509.878V82.3567H483.378V98.7567H514.678V98.8567Z" fill="white"/>
<path d="M530.5 109.557L513.5 63.1567H525.8L537.5 98.7567L549.2 63.1567H560.5L543.5 109.557H530.5Z" fill="white"/>
<path d="M583.232 110.457C579.532 110.457 576.132 109.857 573.132 108.557C570.132 107.257 567.532 105.557 565.432 103.357C563.332 101.157 561.632 98.5568 560.532 95.7568C559.332 92.8568 558.832 89.8568 558.832 86.6568C558.832 82.2568 559.832 78.1568 561.832 74.5568C563.832 70.8568 566.632 67.9568 570.332 65.7568C574.032 63.5568 578.332 62.4568 583.432 62.4568C588.532 62.4568 592.832 63.5568 596.432 65.7568C600.032 67.9568 602.832 70.8568 604.732 74.5568C606.632 78.1568 607.632 82.0568 607.632 86.2568C607.632 86.9568 607.632 87.6568 607.532 88.4568C607.332 89.0568 607.232 89.6568 607.232 90.1568H571.332C571.532 92.5568 572.232 94.5568 573.432 96.3568C574.632 98.1568 576.032 99.4568 577.832 100.357C579.632 101.257 581.532 101.757 583.632 101.757C586.032 101.757 588.232 101.157 590.332 100.057C592.432 98.8568 593.832 97.3568 594.632 95.4568L604.832 98.2568C603.732 100.657 602.132 102.757 600.032 104.557C597.932 106.357 595.432 107.857 592.632 108.857C589.732 109.857 586.632 110.457 583.232 110.457ZM571.132 82.6568H595.332C595.132 80.2568 594.432 78.2568 593.332 76.5568C592.232 74.8568 590.832 73.4568 589.032 72.4568C587.232 71.4568 585.332 70.9568 583.132 70.9568C581.032 70.9568 579.032 71.4568 577.332 72.4568C575.632 73.4568 574.132 74.7568 573.132 76.5568C572.032 78.2568 571.332 80.2568 571.132 82.6568Z" fill="white"/>
<path d="M652.817 109.557H640.917V83.5567C640.917 79.8567 640.217 77.1567 638.917 75.4567C637.617 73.7567 635.817 72.8567 633.517 72.8567C631.917 72.8567 630.317 73.2567 628.717 74.0567C627.117 74.8567 625.617 76.0567 624.317 77.4567C623.017 78.8567 622.117 80.5567 621.517 82.4567V109.557H609.617V63.1567H620.317V71.7567C621.517 69.7567 623.017 68.0567 624.817 66.6567C626.617 65.2567 628.717 64.2567 631.117 63.4567C633.517 62.6567 636.017 62.3567 638.717 62.3567C641.617 62.3567 644.017 62.8567 645.817 63.9567C647.717 64.9567 649.117 66.3567 650.017 68.1567C651.017 69.8567 651.617 71.8567 652.017 74.0567C652.417 76.2567 652.617 78.4567 652.617 80.6567V109.557H652.817Z" fill="white"/>
<path d="M685.934 107.157C684.934 107.557 683.734 108.057 682.334 108.557C680.934 109.057 679.434 109.557 677.734 109.857C676.134 110.157 674.434 110.357 672.834 110.357C670.634 110.357 668.634 109.957 666.834 109.257C665.034 108.457 663.534 107.257 662.434 105.557C661.334 103.857 660.834 101.657 660.834 98.9566V72.2566H654.734V63.1566H660.834V48.0566H672.734V63.1566H682.434V72.2566H672.734V94.9566C672.834 96.5566 673.234 97.7566 674.034 98.4566C674.834 99.1566 675.934 99.5566 677.134 99.5566C678.334 99.5566 679.634 99.3566 680.734 98.9566C681.934 98.5566 682.834 98.1566 683.534 97.8566L685.934 107.157Z" fill="white"/>
<mask id="mask0_20_175" style="mask-type:luminance" maskUnits="userSpaceOnUse" x="261" y="44" width="14" height="14">
<path d="M274.298 44.8999H261.898V57.0999H274.298V44.8999Z" fill="white"/>
</mask>
<g mask="url(#mask0_20_175)">
<path d="M274.197 44.8999V57.0999H261.797" fill="#5271FF"/>
</g>
<path d="M69.1 66.9C69.1 64.8 68.5 63.2 67.2 62.2C66.5 61.6 65.6 61.2 64.4 61C63.2 60.8 61.6 60.7 59.5 60.7H52V73.4H61.5C66.5 73.3 69.1 71.1 69.1 66.9Z" fill="white"/>
<path d="M70 86.5C68.5 85.6 66.2 85.2 63 85.2H52V98.5H61.9C63.9 98.5 65.6 98.4 67 98.1C68.4 97.8 69.5 97.3 70.3 96.6C71.5 95.6 72.1 93.9 72.1 91.6C72.2 89.1 71.5 87.4 70 86.5Z" fill="white"/>
<path d="M137.102 68.4001V39.8H30.1016V61.7001V68.4001C36.5016 68.4001 41.8016 73.4 41.8016 79.5C41.8016 85.7 36.6016 90.6 30.1016 90.6V97.3001V119.2H137.102V90.6C130.702 90.6 125.402 85.6 125.402 79.5C125.502 73.3 130.702 68.4001 137.102 68.4001ZM84.9016 101.3C83.8016 103.9 82.3016 105.9 80.5016 107.4C76.5016 110.6 71.0016 112.2 63.8016 112.2H37.6016V95.8001C44.1016 93.0001 48.7016 86.8 48.7016 79.5C48.7016 72.2 44.1016 66.0001 37.6016 63.2001V46.9001H62.6016C70.7016 46.9001 76.4016 48.8 79.8016 52.5C82.2016 55.2 83.4016 58.7001 83.4016 63.2001C83.4016 66.8001 82.7016 69.8001 81.3016 72.4001C79.9016 74.9001 77.9016 76.7001 75.2016 77.9001C78.8016 78.8001 81.6016 80.5 83.6016 83C85.6016 85.6 86.5016 88.8001 86.5016 92.8001C86.5016 95.9001 86.0016 98.8001 84.9016 101.3Z" fill="white"/>
<path d="M274.198 44.8999H261.898V57.0999H274.198V44.8999Z" fill="white"/>
</svg>
